solid OpenSCAD_Model
  facet normal -1 0 0
    outer loop
      vertex -2.8 -40 -2
      vertex -2.8 40 2
      vertex -2.8 40 -2
    endloop
  endfacet
  facet normal -1 -0 0
    outer loop
      vertex -2.8 40 2
      vertex -2.8 -40 -2
      vertex -2.8 -40 2
    endloop
  endfacet
  facet normal -0 0 1
    outer loop
      vertex 0.809016 19.4122 2
      vertex 1 -20 2
      vertex 1 20 2
    endloop
  endfacet
  facet normal 0 0 1
    outer loop
      vertex 0.809016 19.4122 2
      vertex 0.809016 -19.4122 2
      vertex 1 -20 2
    endloop
  endfacet
  facet normal -0 0 1
    outer loop
      vertex 0.309016 19.0489 2
      vertex 0.809016 -19.4122 2
      vertex 0.809016 19.4122 2
    endloop
  endfacet
  facet normal 0 0 1
    outer loop
      vertex 0.309016 19.0489 2
      vertex 0.309016 -19.0489 2
      vertex 0.809016 -19.4122 2
    endloop
  endfacet
  facet normal -0 0 1
    outer loop
      vertex -0.309016 19.0489 2
      vertex 0.309016 -19.0489 2
      vertex 0.309016 19.0489 2
    endloop
  endfacet
  facet normal 0 0 1
    outer loop
      vertex -0.309016 19.0489 2
      vertex -0.309016 -19.0489 2
      vertex 0.309016 -19.0489 2
    endloop
  endfacet
  facet normal 0 0 1
    outer loop
      vertex -0.809016 19.4122 2
      vertex -0.309016 -19.0489 2
      vertex -0.309016 19.0489 2
    endloop
  endfacet
  facet normal 0 0 1
    outer loop
      vertex -0.809016 19.4122 2
      vertex -0.809016 -19.4122 2
      vertex -0.309016 -19.0489 2
    endloop
  endfacet
  facet normal 0 0 1
    outer loop
      vertex -1 20 2
      vertex -0.809016 -19.4122 2
      vertex -0.809016 19.4122 2
    endloop
  endfacet
  facet normal 0 0 1
    outer loop
      vertex -0.809016 -19.4122 2
      vertex -1 20 2
      vertex -1 -20 2
    endloop
  endfacet
  facet normal 0 0 1
    outer loop
      vertex 1.8 40 2
      vertex 0.809016 20.5878 2
      vertex 1 20 2
    endloop
  endfacet
  facet normal 0 0 1
    outer loop
      vertex -1.8 40 2
      vertex 1.8 40 2
      vertex 0.618033 40.5979 2
    endloop
  endfacet
  facet normal 0 0 1
    outer loop
      vertex 1.8 40 2
      vertex 0.309016 20.9511 2
      vertex 0.809016 20.5878 2
    endloop
  endfacet
  facet normal 0 0 1
    outer loop
      vertex 1.8 40 2
      vertex -1.8 40 2
      vertex 0.309016 20.9511 2
    endloop
  endfacet
  facet normal 0 0 1
    outer loop
      vertex -1.8 40 2
      vertex 0.618033 40.5979 2
      vertex -0.618033 40.5979 2
    endloop
  endfacet
  facet normal 0 0 1
    outer loop
      vertex 0.309016 20.9511 2
      vertex -1.8 40 2
      vertex -0.309016 20.9511 2
    endloop
  endfacet
  facet normal -0 0 1
    outer loop
      vertex -2.8 40 2
      vertex -0.309016 20.9511 2
      vertex -1.8 40 2
    endloop
  endfacet
  facet normal 0 0 1
    outer loop
      vertex -0.309016 20.9511 2
      vertex -2.8 40 2
      vertex -0.809016 20.5878 2
    endloop
  endfacet
  facet normal 0 0 1
    outer loop
      vertex -1.8 40 2
      vertex -0.618033 40.5979 2
      vertex -1.61803 41.3244 2
    endloop
  endfacet
  facet normal 0 0 1
    outer loop
      vertex 1.8 -40 2
      vertex 1.61803 -41.3244 2
      vertex 1.8 -41.8845 2
    endloop
  endfacet
  facet normal 0 0 1
    outer loop
      vertex 1.8 -40 2
      vertex 0.618033 -40.5979 2
      vertex 1.61803 -41.3244 2
    endloop
  endfacet
  facet normal -0 0 1
    outer loop
      vertex -4.89859e-15 -40 2
      vertex 0.618033 -40.5979 2
      vertex 1.8 -40 2
    endloop
  endfacet
  facet normal 0 0 1
    outer loop
      vertex -4.89859e-15 -40 2
      vertex -0.618033 -40.5979 2
      vertex 0.618033 -40.5979 2
    endloop
  endfacet
  facet normal 0 0 1
    outer loop
      vertex -1.8 -40 2
      vertex -4.89859e-15 -40 2
      vertex -0.309016 -20.9511 2
    endloop
  endfacet
  facet normal 0 0 1
    outer loop
      vertex -2.8 -40 2
      vertex -0.309016 -20.9511 2
      vertex -0.809016 -20.5878 2
    endloop
  endfacet
  facet normal 0 0 1
    outer loop
      vertex -2.8 -40 2
      vertex -0.809016 -20.5878 2
      vertex -1 -20 2
    endloop
  endfacet
  facet normal 0 0 1
    outer loop
      vertex -4.89859e-15 -40 2
      vertex -1.8 -40 2
      vertex -0.618033 -40.5979 2
    endloop
  endfacet
  facet normal 0 0 1
    outer loop
      vertex -0.809016 20.5878 2
      vertex -2.8 40 2
      vertex -1 20 2
    endloop
  endfacet
  facet normal 0 0 1
    outer loop
      vertex -1.8 40 2
      vertex -1.61803 41.3244 2
      vertex -1.8 41.8845 2
    endloop
  endfacet
  facet normal 0 0 1
    outer loop
      vertex -1 20 2
      vertex -2.8 40 2
      vertex -1 -20 2
    endloop
  endfacet
  facet normal 0 0 1
    outer loop
      vertex -0.618033 -40.5979 2
      vertex -1.8 -40 2
      vertex -1.61803 -41.3244 2
    endloop
  endfacet
  facet normal 0 0 1
    outer loop
      vertex -1.61803 -41.3244 2
      vertex -1.8 -40 2
      vertex -1.8 -41.8845 2
    endloop
  endfacet
  facet normal -0 0 1
    outer loop
      vertex 1.61803 41.3244 2
      vertex 1.8 40 2
      vertex 1.8 41.8845 2
    endloop
  endfacet
  facet normal -0 0 1
    outer loop
      vertex 0.618033 40.5979 2
      vertex 1.8 40 2
      vertex 1.61803 41.3244 2
    endloop
  endfacet
  facet normal 0 0 1
    outer loop
      vertex 1.8 40 2
      vertex 1 20 2
      vertex 1.8 -40 2
    endloop
  endfacet
  facet normal -0 0 1
    outer loop
      vertex 1 -20 2
      vertex 1.8 -40 2
      vertex 1 20 2
    endloop
  endfacet
  facet normal -0 0 1
    outer loop
      vertex 0.809016 -20.5878 2
      vertex 1.8 -40 2
      vertex 1 -20 2
    endloop
  endfacet
  facet normal -0 0 1
    outer loop
      vertex 0.309016 -20.9511 2
      vertex 1.8 -40 2
      vertex 0.809016 -20.5878 2
    endloop
  endfacet
  facet normal 0 0 1
    outer loop
      vertex 0.309016 -20.9511 2
      vertex -4.89859e-15 -40 2
      vertex 1.8 -40 2
    endloop
  endfacet
  facet normal 0 -0 1
    outer loop
      vertex -4.89859e-15 -40 2
      vertex 0.309016 -20.9511 2
      vertex -0.309016 -20.9511 2
    endloop
  endfacet
  facet normal -0 0 1
    outer loop
      vertex 1.8 40 2
      vertex 2.8 -40 2
      vertex 2.8 40 2
    endloop
  endfacet
  facet normal 0 0 1
    outer loop
      vertex 2.8 -40 2
      vertex 1.8 40 2
      vertex 1.8 -40 2
    endloop
  endfacet
  facet normal 0 0 1
    outer loop
      vertex -2.8 -40 2
      vertex -1 -20 2
      vertex -2.8 40 2
    endloop
  endfacet
  facet normal 0 0 1
    outer loop
      vertex -0.309016 -20.9511 2
      vertex -2.8 -40 2
      vertex -1.8 -40 2
    endloop
  endfacet
  facet normal 0 0 0
    outer loop
      vertex 2.8 -40 2
      vertex 1.8 -40 2
      vertex -4.89859e-15 -40 2
    endloop
  endfacet
  facet normal 1 -0 0
    outer loop
      vertex 2.8 -40 2
      vertex 2.8 40 -2
      vertex 2.8 40 2
    endloop
  endfacet
  facet normal 1 0 0
    outer loop
      vertex 2.8 40 -2
      vertex 2.8 -40 2
      vertex 2.8 -40 -2
    endloop
  endfacet
  facet normal 0 1 -0
    outer loop
      vertex 2.8 40 -2
      vertex 1.8 40 2
      vertex 2.8 40 2
    endloop
  endfacet
  facet normal 0 1 0
    outer loop
      vertex -1.8 40 2
      vertex -2.8 40 -2
      vertex -2.8 40 2
    endloop
  endfacet
  facet normal 0 0 -1
    outer loop
      vertex 0.309016 20.9511 -2
      vertex 2.8 40 -2
      vertex 0.809016 20.5878 -2
    endloop
  endfacet
  facet normal 0 0 -1
    outer loop
      vertex 2.8 40 -2
      vertex 0.809016 41.9122 -2
      vertex 1 42.5 -2
    endloop
  endfacet
  facet normal 0 0 -1
    outer loop
      vertex -2.8 40 -2
      vertex 2.8 40 -2
      vertex 0.309016 20.9511 -2
    endloop
  endfacet
  facet normal 0 0 -1
    outer loop
      vertex 2.8 40 -2
      vertex 0.309016 41.5489 -2
      vertex 0.809016 41.9122 -2
    endloop
  endfacet
  facet normal 0 0 -1
    outer loop
      vertex -2.8 40 -2
      vertex 0.309016 20.9511 -2
      vertex -0.309016 20.9511 -2
    endloop
  endfacet
  facet normal 0 0 -1
    outer loop
      vertex 2.8 40 -2
      vertex -2.8 40 -2
      vertex 0.309016 41.5489 -2
    endloop
  endfacet
  facet normal 0 0 -1
    outer loop
      vertex -2.8 40 -2
      vertex -0.309016 20.9511 -2
      vertex -0.809016 20.5878 -2
    endloop
  endfacet
  facet normal -0 0 -1
    outer loop
      vertex 0.309016 41.5489 -2
      vertex -2.8 40 -2
      vertex -0.309016 41.5489 -2
    endloop
  endfacet
  facet normal 0 0 -1
    outer loop
      vertex -2.8 40 -2
      vertex -0.809016 20.5878 -2
      vertex -1 20 -2
    endloop
  endfacet
  facet normal -0 0 -1
    outer loop
      vertex -0.309016 41.5489 -2
      vertex -2.8 40 -2
      vertex -0.809016 41.9122 -2
    endloop
  endfacet
  facet normal 0 0 -1
    outer loop
      vertex 0.809016 -19.4122 -2
      vertex 1 20 -2
      vertex 1 -20 -2
    endloop
  endfacet
  facet normal 0 0 -1
    outer loop
      vertex 0.809016 -19.4122 -2
      vertex 0.809016 19.4122 -2
      vertex 1 20 -2
    endloop
  endfacet
  facet normal 0 0 -1
    outer loop
      vertex 0.309016 -19.0489 -2
      vertex 0.809016 19.4122 -2
      vertex 0.809016 -19.4122 -2
    endloop
  endfacet
  facet normal 0 0 -1
    outer loop
      vertex 0.309016 -19.0489 -2
      vertex 0.309016 19.0489 -2
      vertex 0.809016 19.4122 -2
    endloop
  endfacet
  facet normal 0 0 -1
    outer loop
      vertex -0.309016 -19.0489 -2
      vertex 0.309016 19.0489 -2
      vertex 0.309016 -19.0489 -2
    endloop
  endfacet
  facet normal 0 0 -1
    outer loop
      vertex -0.309016 -19.0489 -2
      vertex -0.309016 19.0489 -2
      vertex 0.309016 19.0489 -2
    endloop
  endfacet
  facet normal 0 0 -1
    outer loop
      vertex -0.809016 -19.4122 -2
      vertex -0.309016 19.0489 -2
      vertex -0.309016 -19.0489 -2
    endloop
  endfacet
  facet normal 0 0 -1
    outer loop
      vertex -0.809016 -19.4122 -2
      vertex -0.809016 19.4122 -2
      vertex -0.309016 19.0489 -2
    endloop
  endfacet
  facet normal 0 0 -1
    outer loop
      vertex -1 -20 -2
      vertex -0.809016 19.4122 -2
      vertex -0.809016 -19.4122 -2
    endloop
  endfacet
  facet normal -0 0 -1
    outer loop
      vertex -0.809016 19.4122 -2
      vertex -1 -20 -2
      vertex -1 20 -2
    endloop
  endfacet
  facet normal 0 0 -1
    outer loop
      vertex 0.309016 -41.5489 -2
      vertex 2.8 -40 -2
      vertex 0.809016 -41.9122 -2
    endloop
  endfacet
  facet normal 0 0 -1
    outer loop
      vertex 2.8 -40 -2
      vertex 0.809016 -20.5878 -2
      vertex 1 -20 -2
    endloop
  endfacet
  facet normal 0 0 -1
    outer loop
      vertex -2.8 -40 -2
      vertex 2.8 -40 -2
      vertex 0.309016 -41.5489 -2
    endloop
  endfacet
  facet normal 0 0 -1
    outer loop
      vertex 2.8 -40 -2
      vertex 0.309016 -20.9511 -2
      vertex 0.809016 -20.5878 -2
    endloop
  endfacet
  facet normal 0 0 -1
    outer loop
      vertex -2.8 -40 -2
      vertex 0.309016 -41.5489 -2
      vertex -0.309016 -41.5489 -2
    endloop
  endfacet
  facet normal 0 0 -1
    outer loop
      vertex 2.8 -40 -2
      vertex -2.8 -40 -2
      vertex 0.309016 -20.9511 -2
    endloop
  endfacet
  facet normal 0 0 -1
    outer loop
      vertex -2.8 -40 -2
      vertex -0.309016 -41.5489 -2
      vertex -0.809016 -41.9122 -2
    endloop
  endfacet
  facet normal -0 0 -1
    outer loop
      vertex 0.309016 -20.9511 -2
      vertex -2.8 -40 -2
      vertex -0.309016 -20.9511 -2
    endloop
  endfacet
  facet normal 0 0 -1
    outer loop
      vertex -2.8 -40 -2
      vertex -0.809016 -41.9122 -2
      vertex -1 -42.5 -2
    endloop
  endfacet
  facet normal -0 0 -1
    outer loop
      vertex -0.309016 -20.9511 -2
      vertex -2.8 -40 -2
      vertex -0.809016 -20.5878 -2
    endloop
  endfacet
  facet normal 0 0 -1
    outer loop
      vertex 1 -42.5 -2
      vertex 2.8 -40 -2
      vertex 2.8 -45 -2
    endloop
  endfacet
  facet normal 0 0 -1
    outer loop
      vertex 2.8 -40 -2
      vertex 1 -20 -2
      vertex 2.8 40 -2
    endloop
  endfacet
  facet normal 0 0 -1
    outer loop
      vertex 0.809016 -41.9122 -2
      vertex 2.8 -40 -2
      vertex 1 -42.5 -2
    endloop
  endfacet
  facet normal 0 0 -1
    outer loop
      vertex 2.8 -45 -2
      vertex 0.809016 -43.0878 -2
      vertex 1 -42.5 -2
    endloop
  endfacet
  facet normal 0 0 -1
    outer loop
      vertex 2.8 -45 -2
      vertex 0.309016 -43.4511 -2
      vertex 0.809016 -43.0878 -2
    endloop
  endfacet
  facet normal 0 0 -1
    outer loop
      vertex 2.8 -45 -2
      vertex -0.309016 -43.4511 -2
      vertex 0.309016 -43.4511 -2
    endloop
  endfacet
  facet normal -0 0 -1
    outer loop
      vertex -0.809016 -20.5878 -2
      vertex -2.8 -40 -2
      vertex -1 -20 -2
    endloop
  endfacet
  facet normal -0 0 -1
    outer loop
      vertex -1 -20 -2
      vertex -2.8 -40 -2
      vertex -1 20 -2
    endloop
  endfacet
  facet normal 0 0 -1
    outer loop
      vertex -2.8 -40 -2
      vertex -1 -42.5 -2
      vertex -2.8 -45 -2
    endloop
  endfacet
  facet normal -0 0 -1
    outer loop
      vertex -0.809016 -43.0878 -2
      vertex -2.8 -45 -2
      vertex -1 -42.5 -2
    endloop
  endfacet
  facet normal -0 0 -1
    outer loop
      vertex -0.309016 -43.4511 -2
      vertex -2.8 -45 -2
      vertex -0.809016 -43.0878 -2
    endloop
  endfacet
  facet normal 0 0 -1
    outer loop
      vertex -2.8 -45 -2
      vertex -0.309016 -43.4511 -2
      vertex 2.8 -45 -2
    endloop
  endfacet
  facet normal 0 0 -1
    outer loop
      vertex 1 20 -2
      vertex 2.8 40 -2
      vertex 1 -20 -2
    endloop
  endfacet
  facet normal 0 0 -1
    outer loop
      vertex 0.809016 20.5878 -2
      vertex 2.8 40 -2
      vertex 1 20 -2
    endloop
  endfacet
  facet normal 0 0 -1
    outer loop
      vertex 2.8 40 -2
      vertex 1 42.5 -2
      vertex 2.8 45 -2
    endloop
  endfacet
  facet normal 0 0 -1
    outer loop
      vertex 0.809016 43.0878 -2
      vertex 2.8 45 -2
      vertex 1 42.5 -2
    endloop
  endfacet
  facet normal 0 0 -1
    outer loop
      vertex 0.309016 43.4511 -2
      vertex 2.8 45 -2
      vertex 0.809016 43.0878 -2
    endloop
  endfacet
  facet normal 0 0 -1
    outer loop
      vertex -0.309016 43.4511 -2
      vertex 2.8 45 -2
      vertex 0.309016 43.4511 -2
    endloop
  endfacet
  facet normal 0 0 -1
    outer loop
      vertex -2.8 40 -2
      vertex -1 20 -2
      vertex -2.8 -40 -2
    endloop
  endfacet
  facet normal -0 0 -1
    outer loop
      vertex -0.809016 41.9122 -2
      vertex -2.8 40 -2
      vertex -1 42.5 -2
    endloop
  endfacet
  facet normal 0 0 -1
    outer loop
      vertex -2.8 45 -2
      vertex -1 42.5 -2
      vertex -2.8 40 -2
    endloop
  endfacet
  facet normal 0 0 -1
    outer loop
      vertex -0.309016 43.4511 -2
      vertex -2.8 45 -2
      vertex 2.8 45 -2
    endloop
  endfacet
  facet normal 0 0 -1
    outer loop
      vertex -0.809016 43.0878 -2
      vertex -2.8 45 -2
      vertex -0.309016 43.4511 -2
    endloop
  endfacet
  facet normal 0 0 -1
    outer loop
      vertex -1 42.5 -2
      vertex -2.8 45 -2
      vertex -0.809016 43.0878 -2
    endloop
  endfacet
  facet normal 0 -1 0
    outer loop
      vertex -2.8 -40 2
      vertex -2.8 -40 -2
      vertex -1.8 -40 2
    endloop
  endfacet
  facet normal 0 -1 0
    outer loop
      vertex -4.89859e-15 -40 -2
      vertex 2.8 -40 2
      vertex -4.89859e-15 -40 2
    endloop
  endfacet
  facet normal 0 -1 -0
    outer loop
      vertex 2.8 -40 2
      vertex -4.89859e-15 -40 -2
      vertex 2.8 -40 -2
    endloop
  endfacet
  facet normal -0.951056 -0.309019 0
    outer loop
      vertex 1 20 -2
      vertex 0.809016 20.5878 2
      vertex 0.809016 20.5878 -2
    endloop
  endfacet
  facet normal -0.951056 -0.309019 0
    outer loop
      vertex 0.809016 20.5878 2
      vertex 1 20 -2
      vertex 1 20 2
    endloop
  endfacet
  facet normal 0 -1 0
    outer loop
      vertex -0.309016 20.9511 -2
      vertex 0.309016 20.9511 2
      vertex -0.309016 20.9511 2
    endloop
  endfacet
  facet normal 0 -1 -0
    outer loop
      vertex 0.309016 20.9511 2
      vertex -0.309016 20.9511 -2
      vertex 0.309016 20.9511 -2
    endloop
  endfacet
  facet normal -0.587788 -0.809015 0
    outer loop
      vertex 0.309016 20.9511 -2
      vertex 0.809016 20.5878 2
      vertex 0.309016 20.9511 2
    endloop
  endfacet
  facet normal -0.587788 -0.809015 -0
    outer loop
      vertex 0.809016 20.5878 2
      vertex 0.309016 20.9511 -2
      vertex 0.809016 20.5878 -2
    endloop
  endfacet
  facet normal -0.587786 0.809017 0
    outer loop
      vertex 0.809016 19.4122 -2
      vertex 0.309016 19.0489 2
      vertex 0.809016 19.4122 2
    endloop
  endfacet
  facet normal -0.587786 0.809017 0
    outer loop
      vertex 0.309016 19.0489 2
      vertex 0.809016 19.4122 -2
      vertex 0.309016 19.0489 -2
    endloop
  endfacet
  facet normal 0.587786 0.809017 -0
    outer loop
      vertex -0.309016 19.0489 -2
      vertex -0.809016 19.4122 2
      vertex -0.309016 19.0489 2
    endloop
  endfacet
  facet normal 0.587786 0.809017 0
    outer loop
      vertex -0.809016 19.4122 2
      vertex -0.309016 19.0489 -2
      vertex -0.809016 19.4122 -2
    endloop
  endfacet
  facet normal 0.951056 -0.309019 0
    outer loop
      vertex -1 20 2
      vertex -0.809016 20.5878 -2
      vertex -0.809016 20.5878 2
    endloop
  endfacet
  facet normal 0.951056 -0.309019 0
    outer loop
      vertex -0.809016 20.5878 -2
      vertex -1 20 2
      vertex -1 20 -2
    endloop
  endfacet
  facet normal 0.951056 0.309018 0
    outer loop
      vertex -0.809016 19.4122 2
      vertex -1 20 -2
      vertex -1 20 2
    endloop
  endfacet
  facet normal 0.951056 0.309018 0
    outer loop
      vertex -1 20 -2
      vertex -0.809016 19.4122 2
      vertex -0.809016 19.4122 -2
    endloop
  endfacet
  facet normal 0.587788 -0.809015 0
    outer loop
      vertex -0.809016 20.5878 -2
      vertex -0.309016 20.9511 2
      vertex -0.809016 20.5878 2
    endloop
  endfacet
  facet normal 0.587788 -0.809015 0
    outer loop
      vertex -0.309016 20.9511 2
      vertex -0.809016 20.5878 -2
      vertex -0.309016 20.9511 -2
    endloop
  endfacet
  facet normal -0.951056 0.309018 0
    outer loop
      vertex 0.809016 19.4122 -2
      vertex 1 20 2
      vertex 1 20 -2
    endloop
  endfacet
  facet normal -0.951056 0.309018 0
    outer loop
      vertex 1 20 2
      vertex 0.809016 19.4122 -2
      vertex 0.809016 19.4122 2
    endloop
  endfacet
  facet normal 0 1 -0
    outer loop
      vertex 0.309016 19.0489 -2
      vertex -0.309016 19.0489 2
      vertex 0.309016 19.0489 2
    endloop
  endfacet
  facet normal 0 1 0
    outer loop
      vertex -0.309016 19.0489 2
      vertex 0.309016 19.0489 -2
      vertex -0.309016 19.0489 -2
    endloop
  endfacet
  facet normal -0.951056 -0.309018 0
    outer loop
      vertex 1 -20 -2
      vertex 0.809016 -19.4122 2
      vertex 0.809016 -19.4122 -2
    endloop
  endfacet
  facet normal -0.951056 -0.309018 0
    outer loop
      vertex 0.809016 -19.4122 2
      vertex 1 -20 -2
      vertex 1 -20 2
    endloop
  endfacet
  facet normal 0.951056 -0.309018 0
    outer loop
      vertex -1 -20 2
      vertex -0.809016 -19.4122 -2
      vertex -0.809016 -19.4122 2
    endloop
  endfacet
  facet normal 0.951056 -0.309018 0
    outer loop
      vertex -0.809016 -19.4122 -2
      vertex -1 -20 2
      vertex -1 -20 -2
    endloop
  endfacet
  facet normal 0 -1 0
    outer loop
      vertex -0.309016 -19.0489 -2
      vertex 0.309016 -19.0489 2
      vertex -0.309016 -19.0489 2
    endloop
  endfacet
  facet normal 0 -1 -0
    outer loop
      vertex 0.309016 -19.0489 2
      vertex -0.309016 -19.0489 -2
      vertex 0.309016 -19.0489 -2
    endloop
  endfacet
  facet normal -0.587786 -0.809017 0
    outer loop
      vertex 0.309016 -19.0489 -2
      vertex 0.809016 -19.4122 2
      vertex 0.309016 -19.0489 2
    endloop
  endfacet
  facet normal -0.587786 -0.809017 -0
    outer loop
      vertex 0.809016 -19.4122 2
      vertex 0.309016 -19.0489 -2
      vertex 0.809016 -19.4122 -2
    endloop
  endfacet
  facet normal 0.587786 -0.809017 0
    outer loop
      vertex -0.809016 -19.4122 -2
      vertex -0.309016 -19.0489 2
      vertex -0.809016 -19.4122 2
    endloop
  endfacet
  facet normal 0.587786 -0.809017 0
    outer loop
      vertex -0.309016 -19.0489 2
      vertex -0.809016 -19.4122 -2
      vertex -0.309016 -19.0489 -2
    endloop
  endfacet
  facet normal -0.951056 0.309019 0
    outer loop
      vertex 0.809016 -20.5878 -2
      vertex 1 -20 2
      vertex 1 -20 -2
    endloop
  endfacet
  facet normal -0.951056 0.309019 0
    outer loop
      vertex 1 -20 2
      vertex 0.809016 -20.5878 -2
      vertex 0.809016 -20.5878 2
    endloop
  endfacet
  facet normal 0.951056 0.309019 0
    outer loop
      vertex -0.809016 -20.5878 2
      vertex -1 -20 -2
      vertex -1 -20 2
    endloop
  endfacet
  facet normal 0.951056 0.309019 0
    outer loop
      vertex -1 -20 -2
      vertex -0.809016 -20.5878 2
      vertex -0.809016 -20.5878 -2
    endloop
  endfacet
  facet normal 0 1 -0
    outer loop
      vertex 0.309016 -20.9511 -2
      vertex -0.309016 -20.9511 2
      vertex 0.309016 -20.9511 2
    endloop
  endfacet
  facet normal 0 1 0
    outer loop
      vertex -0.309016 -20.9511 2
      vertex 0.309016 -20.9511 -2
      vertex -0.309016 -20.9511 -2
    endloop
  endfacet
  facet normal -0.587788 0.809015 0
    outer loop
      vertex 0.809016 -20.5878 -2
      vertex 0.309016 -20.9511 2
      vertex 0.809016 -20.5878 2
    endloop
  endfacet
  facet normal -0.587788 0.809015 0
    outer loop
      vertex 0.309016 -20.9511 2
      vertex 0.809016 -20.5878 -2
      vertex 0.309016 -20.9511 -2
    endloop
  endfacet
  facet normal 0.587788 0.809015 -0
    outer loop
      vertex -0.309016 -20.9511 -2
      vertex -0.809016 -20.5878 2
      vertex -0.309016 -20.9511 2
    endloop
  endfacet
  facet normal 0.587788 0.809015 0
    outer loop
      vertex -0.809016 -20.5878 2
      vertex -0.309016 -20.9511 -2
      vertex -0.809016 -20.5878 -2
    endloop
  endfacet
  facet normal -0.970143 0 0.242536
    outer loop
      vertex -2 42.5 1.2
      vertex -1.8 45 2
      vertex -2.8 45 -2
    endloop
  endfacet
  facet normal -0.970143 0 0.242536
    outer loop
      vertex -1.8 45 2
      vertex -2 42.5 1.2
      vertex -1.8 43.1155 2
    endloop
  endfacet
  facet normal -0.970143 0 0.242536
    outer loop
      vertex -2.8 40 -2
      vertex -2 42.5 1.2
      vertex -2.8 45 -2
    endloop
  endfacet
  facet normal -0.970143 0 0.242536
    outer loop
      vertex -1.8 40 2
      vertex -2 42.5 1.2
      vertex -2.8 40 -2
    endloop
  endfacet
  facet normal -0.970143 0 0.242536
    outer loop
      vertex -2 42.5 1.2
      vertex -1.8 40 2
      vertex -1.8 41.8845 2
    endloop
  endfacet
  facet normal 0.970143 0 0.242536
    outer loop
      vertex 2 42.5 1.2
      vertex 1.8 45 2
      vertex 1.8 43.1155 2
    endloop
  endfacet
  facet normal 0.970143 0 0.242536
    outer loop
      vertex 1.8 45 2
      vertex 2 42.5 1.2
      vertex 2.8 45 -2
    endloop
  endfacet
  facet normal 0.970143 -0 0.242536
    outer loop
      vertex 1.8 40 2
      vertex 2 42.5 1.2
      vertex 1.8 41.8845 2
    endloop
  endfacet
  facet normal 0.970143 0 0.242536
    outer loop
      vertex 2.8 40 -2
      vertex 2 42.5 1.2
      vertex 1.8 40 2
    endloop
  endfacet
  facet normal 0.970143 0 0.242536
    outer loop
      vertex 2 42.5 1.2
      vertex 2.8 40 -2
      vertex 2.8 45 -2
    endloop
  endfacet
  facet normal 0 1 0
    outer loop
      vertex 2.8 45 -2
      vertex -1.8 45 2
      vertex 1.8 45 2
    endloop
  endfacet
  facet normal 0 1 0
    outer loop
      vertex -1.8 45 2
      vertex 2.8 45 -2
      vertex -2.8 45 -2
    endloop
  endfacet
  facet normal 0 0 1
    outer loop
      vertex 1.8 45 2
      vertex 1.61803 43.6756 2
      vertex 1.8 43.1155 2
    endloop
  endfacet
  facet normal 0 0 1
    outer loop
      vertex 1.8 45 2
      vertex 0.618033 44.4021 2
      vertex 1.61803 43.6756 2
    endloop
  endfacet
  facet normal 0 0 1
    outer loop
      vertex 1.8 45 2
      vertex -0.618033 44.4021 2
      vertex 0.618033 44.4021 2
    endloop
  endfacet
  facet normal -0 0 1
    outer loop
      vertex -1.8 45 2
      vertex -0.618033 44.4021 2
      vertex 1.8 45 2
    endloop
  endfacet
  facet normal 0 0 1
    outer loop
      vertex -1.8 45 2
      vertex -1.61803 43.6756 2
      vertex -0.618033 44.4021 2
    endloop
  endfacet
  facet normal 0 0 1
    outer loop
      vertex -1.61803 43.6756 2
      vertex -1.8 45 2
      vertex -1.8 43.1155 2
    endloop
  endfacet
  facet normal -0.951056 -0.309019 0
    outer loop
      vertex 1 42.5 -2
      vertex 0.809016 43.0878 0
      vertex 0.809016 43.0878 -2
    endloop
  endfacet
  facet normal -0.951056 -0.309019 0
    outer loop
      vertex 0.809016 43.0878 0
      vertex 1 42.5 -2
      vertex 1 42.5 0
    endloop
  endfacet
  facet normal 0.951056 -0.309019 0
    outer loop
      vertex -1 42.5 0
      vertex -0.809016 43.0878 -2
      vertex -0.809016 43.0878 0
    endloop
  endfacet
  facet normal 0.951056 -0.309019 0
    outer loop
      vertex -0.809016 43.0878 -2
      vertex -1 42.5 0
      vertex -1 42.5 -2
    endloop
  endfacet
  facet normal 0 -1 0
    outer loop
      vertex -0.309016 43.4511 -2
      vertex 0.309016 43.4511 0
      vertex -0.309016 43.4511 0
    endloop
  endfacet
  facet normal 0 -1 -0
    outer loop
      vertex 0.309016 43.4511 0
      vertex -0.309016 43.4511 -2
      vertex 0.309016 43.4511 -2
    endloop
  endfacet
  facet normal -0.587788 -0.809015 0
    outer loop
      vertex 0.309016 43.4511 -2
      vertex 0.809016 43.0878 0
      vertex 0.309016 43.4511 0
    endloop
  endfacet
  facet normal -0.587788 -0.809015 -0
    outer loop
      vertex 0.809016 43.0878 0
      vertex 0.309016 43.4511 -2
      vertex 0.809016 43.0878 -2
    endloop
  endfacet
  facet normal 0.587788 -0.809015 0
    outer loop
      vertex -0.809016 43.0878 -2
      vertex -0.309016 43.4511 0
      vertex -0.809016 43.0878 0
    endloop
  endfacet
  facet normal 0.587788 -0.809015 0
    outer loop
      vertex -0.309016 43.4511 0
      vertex -0.809016 43.0878 -2
      vertex -0.309016 43.4511 -2
    endloop
  endfacet
  facet normal -0.951056 0.309019 0
    outer loop
      vertex 0.809016 41.9122 -2
      vertex 1 42.5 0
      vertex 1 42.5 -2
    endloop
  endfacet
  facet normal -0.951056 0.309019 0
    outer loop
      vertex 1 42.5 0
      vertex 0.809016 41.9122 -2
      vertex 0.809016 41.9122 0
    endloop
  endfacet
  facet normal 0.951056 0.309019 0
    outer loop
      vertex -0.809016 41.9122 0
      vertex -1 42.5 -2
      vertex -1 42.5 0
    endloop
  endfacet
  facet normal 0.951056 0.309019 0
    outer loop
      vertex -1 42.5 -2
      vertex -0.809016 41.9122 0
      vertex -0.809016 41.9122 -2
    endloop
  endfacet
  facet normal 0 1 -0
    outer loop
      vertex 0.309016 41.5489 -2
      vertex -0.309016 41.5489 0
      vertex 0.309016 41.5489 0
    endloop
  endfacet
  facet normal 0 1 0
    outer loop
      vertex -0.309016 41.5489 0
      vertex 0.309016 41.5489 -2
      vertex -0.309016 41.5489 -2
    endloop
  endfacet
  facet normal -0.587788 0.809015 0
    outer loop
      vertex 0.809016 41.9122 -2
      vertex 0.309016 41.5489 0
      vertex 0.809016 41.9122 0
    endloop
  endfacet
  facet normal -0.587788 0.809015 0
    outer loop
      vertex 0.309016 41.5489 0
      vertex 0.809016 41.9122 -2
      vertex 0.309016 41.5489 -2
    endloop
  endfacet
  facet normal 0.587788 0.809015 -0
    outer loop
      vertex -0.309016 41.5489 -2
      vertex -0.809016 41.9122 0
      vertex -0.309016 41.5489 0
    endloop
  endfacet
  facet normal 0.587788 0.809015 0
    outer loop
      vertex -0.809016 41.9122 0
      vertex -0.309016 41.5489 -2
      vertex -0.809016 41.9122 -2
    endloop
  endfacet
  facet normal -0.951056 -0.309017 0
    outer loop
      vertex 2 42.5 1.2
      vertex 1.61803 43.6756 2
      vertex 1.61803 43.6756 0
    endloop
  endfacet
  facet normal -0.951056 -0.309017 -0
    outer loop
      vertex 2 42.5 1.2
      vertex 1.61803 43.6756 0
      vertex 2 42.5 0
    endloop
  endfacet
  facet normal -0.951056 -0.309018 7.61106e-07
    outer loop
      vertex 1.61803 43.6756 2
      vertex 2 42.5 1.2
      vertex 1.8 43.1155 2
    endloop
  endfacet
  facet normal 0.951056 -0.309018 7.61106e-07
    outer loop
      vertex -2 42.5 1.2
      vertex -1.61803 43.6756 2
      vertex -1.8 43.1155 2
    endloop
  endfacet
  facet normal 0.951056 -0.309017 0
    outer loop
      vertex -1.61803 43.6756 2
      vertex -2 42.5 1.2
      vertex -1.61803 43.6756 0
    endloop
  endfacet
  facet normal 0.951056 -0.309017 0
    outer loop
      vertex -1.61803 43.6756 0
      vertex -2 42.5 1.2
      vertex -2 42.5 0
    endloop
  endfacet
  facet normal 0 -1 0
    outer loop
      vertex -0.618033 44.4021 0
      vertex 0.618033 44.4021 2
      vertex -0.618033 44.4021 2
    endloop
  endfacet
  facet normal 0 -1 -0
    outer loop
      vertex 0.618033 44.4021 2
      vertex -0.618033 44.4021 0
      vertex 0.618033 44.4021 0
    endloop
  endfacet
  facet normal -0.587786 -0.809017 0
    outer loop
      vertex 0.618033 44.4021 0
      vertex 1.61803 43.6756 2
      vertex 0.618033 44.4021 2
    endloop
  endfacet
  facet normal -0.587786 -0.809017 -0
    outer loop
      vertex 1.61803 43.6756 2
      vertex 0.618033 44.4021 0
      vertex 1.61803 43.6756 0
    endloop
  endfacet
  facet normal 0.587786 -0.809017 0
    outer loop
      vertex -1.61803 43.6756 0
      vertex -0.618033 44.4021 2
      vertex -1.61803 43.6756 2
    endloop
  endfacet
  facet normal 0.587786 -0.809017 0
    outer loop
      vertex -0.618033 44.4021 2
      vertex -1.61803 43.6756 0
      vertex -0.618033 44.4021 0
    endloop
  endfacet
  facet normal -0.951056 0.309017 0
    outer loop
      vertex 1.61803 41.3244 0
      vertex 2 42.5 1.2
      vertex 2 42.5 0
    endloop
  endfacet
  facet normal -0.951056 0.309017 0
    outer loop
      vertex 1.61803 41.3244 2
      vertex 2 42.5 1.2
      vertex 1.61803 41.3244 0
    endloop
  endfacet
  facet normal -0.951056 0.309018 7.61106e-07
    outer loop
      vertex 2 42.5 1.2
      vertex 1.61803 41.3244 2
      vertex 1.8 41.8845 2
    endloop
  endfacet
  facet normal 0 0 1
    outer loop
      vertex 1 42.5 0
      vertex 2 42.5 0
      vertex 1.61803 43.6756 0
    endloop
  endfacet
  facet normal 0 0 1
    outer loop
      vertex 2 42.5 0
      vertex 1 42.5 0
      vertex 1.61803 41.3244 0
    endloop
  endfacet
  facet normal 0 0 1
    outer loop
      vertex 1.61803 43.6756 0
      vertex 0.809016 43.0878 0
      vertex 1 42.5 0
    endloop
  endfacet
  facet normal 0 0 1
    outer loop
      vertex 0.618033 44.4021 0
      vertex 0.809016 43.0878 0
      vertex 1.61803 43.6756 0
    endloop
  endfacet
  facet normal 0 0 1
    outer loop
      vertex 0.618033 44.4021 0
      vertex 0.309016 43.4511 0
      vertex 0.809016 43.0878 0
    endloop
  endfacet
  facet normal 0 0 1
    outer loop
      vertex 0.618033 44.4021 0
      vertex -0.309016 43.4511 0
      vertex 0.309016 43.4511 0
    endloop
  endfacet
  facet normal -0 0 1
    outer loop
      vertex -0.618033 44.4021 0
      vertex -0.309016 43.4511 0
      vertex 0.618033 44.4021 0
    endloop
  endfacet
  facet normal 0 0 1
    outer loop
      vertex -0.618033 44.4021 0
      vertex -0.809016 43.0878 0
      vertex -0.309016 43.4511 0
    endloop
  endfacet
  facet normal -0 0 1
    outer loop
      vertex -1.61803 43.6756 0
      vertex -0.809016 43.0878 0
      vertex -0.618033 44.4021 0
    endloop
  endfacet
  facet normal 0 0 1
    outer loop
      vertex -0.809016 43.0878 0
      vertex -1.61803 43.6756 0
      vertex -1 42.5 0
    endloop
  endfacet
  facet normal -0 0 1
    outer loop
      vertex 0.809016 41.9122 0
      vertex 1.61803 41.3244 0
      vertex 1 42.5 0
    endloop
  endfacet
  facet normal 0 0 1
    outer loop
      vertex 0.809016 41.9122 0
      vertex 0.618033 40.5979 0
      vertex 1.61803 41.3244 0
    endloop
  endfacet
  facet normal -0 0 1
    outer loop
      vertex 0.309016 41.5489 0
      vertex 0.618033 40.5979 0
      vertex 0.809016 41.9122 0
    endloop
  endfacet
  facet normal -0 0 1
    outer loop
      vertex -0.309016 41.5489 0
      vertex 0.618033 40.5979 0
      vertex 0.309016 41.5489 0
    endloop
  endfacet
  facet normal 0 0 1
    outer loop
      vertex -0.309016 41.5489 0
      vertex -0.618033 40.5979 0
      vertex 0.618033 40.5979 0
    endloop
  endfacet
  facet normal 0 0 1
    outer loop
      vertex -0.809016 41.9122 0
      vertex -0.618033 40.5979 0
      vertex -0.309016 41.5489 0
    endloop
  endfacet
  facet normal 0 0 1
    outer loop
      vertex -1.61803 41.3244 0
      vertex -0.809016 41.9122 0
      vertex -1 42.5 0
    endloop
  endfacet
  facet normal 0 0 1
    outer loop
      vertex -2 42.5 0
      vertex -1 42.5 0
      vertex -1.61803 43.6756 0
    endloop
  endfacet
  facet normal 0 0 1
    outer loop
      vertex -0.809016 41.9122 0
      vertex -1.61803 41.3244 0
      vertex -0.618033 40.5979 0
    endloop
  endfacet
  facet normal 0 0 1
    outer loop
      vertex -1 42.5 0
      vertex -2 42.5 0
      vertex -1.61803 41.3244 0
    endloop
  endfacet
  facet normal 0.951056 0.309018 7.61106e-07
    outer loop
      vertex -1.61803 41.3244 2
      vertex -2 42.5 1.2
      vertex -1.8 41.8845 2
    endloop
  endfacet
  facet normal 0.951056 0.309017 0
    outer loop
      vertex -2 42.5 1.2
      vertex -1.61803 41.3244 2
      vertex -1.61803 41.3244 0
    endloop
  endfacet
  facet normal 0.951056 0.309017 0
    outer loop
      vertex -2 42.5 1.2
      vertex -1.61803 41.3244 0
      vertex -2 42.5 0
    endloop
  endfacet
  facet normal -0.587786 0.809017 0
    outer loop
      vertex 1.61803 41.3244 0
      vertex 0.618033 40.5979 2
      vertex 1.61803 41.3244 2
    endloop
  endfacet
  facet normal -0.587786 0.809017 0
    outer loop
      vertex 0.618033 40.5979 2
      vertex 1.61803 41.3244 0
      vertex 0.618033 40.5979 0
    endloop
  endfacet
  facet normal 0.587786 0.809017 -0
    outer loop
      vertex -0.618033 40.5979 0
      vertex -1.61803 41.3244 2
      vertex -0.618033 40.5979 2
    endloop
  endfacet
  facet normal 0.587786 0.809017 0
    outer loop
      vertex -1.61803 41.3244 2
      vertex -0.618033 40.5979 0
      vertex -1.61803 41.3244 0
    endloop
  endfacet
  facet normal 0 1 -0
    outer loop
      vertex 0.618033 40.5979 0
      vertex -0.618033 40.5979 2
      vertex 0.618033 40.5979 2
    endloop
  endfacet
  facet normal 0 1 0
    outer loop
      vertex -0.618033 40.5979 2
      vertex 0.618033 40.5979 0
      vertex -0.618033 40.5979 0
    endloop
  endfacet
  facet normal 0.970143 0 0.242536
    outer loop
      vertex 2 -42.5 1.2
      vertex 1.8 -40 2
      vertex 1.8 -41.8845 2
    endloop
  endfacet
  facet normal 0.970143 0 0.242536
    outer loop
      vertex 1.8 -40 2
      vertex 2 -42.5 1.2
      vertex 2.8 -40 -2
    endloop
  endfacet
  facet normal 0.970143 -0 0.242536
    outer loop
      vertex 1.8 -45 2
      vertex 2 -42.5 1.2
      vertex 1.8 -43.1155 2
    endloop
  endfacet
  facet normal 0.970143 0 0.242536
    outer loop
      vertex 2.8 -45 -2
      vertex 2 -42.5 1.2
      vertex 1.8 -45 2
    endloop
  endfacet
  facet normal 0.970143 0 0.242536
    outer loop
      vertex 2 -42.5 1.2
      vertex 2.8 -45 -2
      vertex 2.8 -40 -2
    endloop
  endfacet
  facet normal -0.970143 0 0.242536
    outer loop
      vertex -2 -42.5 1.2
      vertex -1.8 -40 2
      vertex -2.8 -40 -2
    endloop
  endfacet
  facet normal -0.970143 0 0.242536
    outer loop
      vertex -1.8 -40 2
      vertex -2 -42.5 1.2
      vertex -1.8 -41.8845 2
    endloop
  endfacet
  facet normal -0.970143 0 0.242536
    outer loop
      vertex -2.8 -45 -2
      vertex -2 -42.5 1.2
      vertex -2.8 -40 -2
    endloop
  endfacet
  facet normal -0.970143 0 0.242536
    outer loop
      vertex -1.8 -45 2
      vertex -2 -42.5 1.2
      vertex -2.8 -45 -2
    endloop
  endfacet
  facet normal -0.970143 0 0.242536
    outer loop
      vertex -2 -42.5 1.2
      vertex -1.8 -45 2
      vertex -1.8 -43.1155 2
    endloop
  endfacet
  facet normal 0 -1 0
    outer loop
      vertex -2.8 -45 -2
      vertex 1.8 -45 2
      vertex -1.8 -45 2
    endloop
  endfacet
  facet normal 0 -1 -0
    outer loop
      vertex 1.8 -45 2
      vertex -2.8 -45 -2
      vertex 2.8 -45 -2
    endloop
  endfacet
  facet normal -0 0 1
    outer loop
      vertex 1.61803 -43.6756 2
      vertex 1.8 -45 2
      vertex 1.8 -43.1155 2
    endloop
  endfacet
  facet normal -0 0 1
    outer loop
      vertex 0.618033 -44.4021 2
      vertex 1.8 -45 2
      vertex 1.61803 -43.6756 2
    endloop
  endfacet
  facet normal 0 0 1
    outer loop
      vertex -0.618033 -44.4021 2
      vertex 1.8 -45 2
      vertex 0.618033 -44.4021 2
    endloop
  endfacet
  facet normal 0 0 1
    outer loop
      vertex -0.618033 -44.4021 2
      vertex -1.8 -45 2
      vertex 1.8 -45 2
    endloop
  endfacet
  facet normal 0 0 1
    outer loop
      vertex -1.61803 -43.6756 2
      vertex -1.8 -45 2
      vertex -0.618033 -44.4021 2
    endloop
  endfacet
  facet normal 0 0 1
    outer loop
      vertex -1.8 -45 2
      vertex -1.61803 -43.6756 2
      vertex -1.8 -43.1155 2
    endloop
  endfacet
  facet normal 0 1 0
    outer loop
      vertex -4.89859e-15 -40 -2
      vertex 1.8 -40 2
      vertex 2.8 -40 -2
    endloop
  endfacet
  facet normal 0 1 0
    outer loop
      vertex 1.8 -40 2
      vertex -4.89859e-15 -40 -2
      vertex -4.89859e-15 -40 2
    endloop
  endfacet
  facet normal 0.951056 0.309019 0
    outer loop
      vertex -0.809016 -43.0878 0
      vertex -1 -42.5 -2
      vertex -1 -42.5 0
    endloop
  endfacet
  facet normal 0.951056 0.309019 0
    outer loop
      vertex -1 -42.5 -2
      vertex -0.809016 -43.0878 0
      vertex -0.809016 -43.0878 -2
    endloop
  endfacet
  facet normal -0.951056 0.309019 0
    outer loop
      vertex 0.809016 -43.0878 -2
      vertex 1 -42.5 0
      vertex 1 -42.5 -2
    endloop
  endfacet
  facet normal -0.951056 0.309019 0
    outer loop
      vertex 1 -42.5 0
      vertex 0.809016 -43.0878 -2
      vertex 0.809016 -43.0878 0
    endloop
  endfacet
  facet normal 0 1 -0
    outer loop
      vertex 0.309016 -43.4511 -2
      vertex -0.309016 -43.4511 0
      vertex 0.309016 -43.4511 0
    endloop
  endfacet
  facet normal 0 1 0
    outer loop
      vertex -0.309016 -43.4511 0
      vertex 0.309016 -43.4511 -2
      vertex -0.309016 -43.4511 -2
    endloop
  endfacet
  facet normal 0.587788 0.809015 -0
    outer loop
      vertex -0.309016 -43.4511 -2
      vertex -0.809016 -43.0878 0
      vertex -0.309016 -43.4511 0
    endloop
  endfacet
  facet normal 0.587788 0.809015 0
    outer loop
      vertex -0.809016 -43.0878 0
      vertex -0.309016 -43.4511 -2
      vertex -0.809016 -43.0878 -2
    endloop
  endfacet
  facet normal -0.587788 0.809015 0
    outer loop
      vertex 0.809016 -43.0878 -2
      vertex 0.309016 -43.4511 0
      vertex 0.809016 -43.0878 0
    endloop
  endfacet
  facet normal -0.587788 0.809015 0
    outer loop
      vertex 0.309016 -43.4511 0
      vertex 0.809016 -43.0878 -2
      vertex 0.309016 -43.4511 -2
    endloop
  endfacet
  facet normal 0.951056 -0.309019 0
    outer loop
      vertex -1 -42.5 0
      vertex -0.809016 -41.9122 -2
      vertex -0.809016 -41.9122 0
    endloop
  endfacet
  facet normal 0.951056 -0.309019 0
    outer loop
      vertex -0.809016 -41.9122 -2
      vertex -1 -42.5 0
      vertex -1 -42.5 -2
    endloop
  endfacet
  facet normal -0.951056 -0.309019 0
    outer loop
      vertex 1 -42.5 -2
      vertex 0.809016 -41.9122 0
      vertex 0.809016 -41.9122 -2
    endloop
  endfacet
  facet normal -0.951056 -0.309019 0
    outer loop
      vertex 0.809016 -41.9122 0
      vertex 1 -42.5 -2
      vertex 1 -42.5 0
    endloop
  endfacet
  facet normal 0 -1 0
    outer loop
      vertex -0.309016 -41.5489 -2
      vertex 0.309016 -41.5489 0
      vertex -0.309016 -41.5489 0
    endloop
  endfacet
  facet normal 0 -1 -0
    outer loop
      vertex 0.309016 -41.5489 0
      vertex -0.309016 -41.5489 -2
      vertex 0.309016 -41.5489 -2
    endloop
  endfacet
  facet normal 0.587788 -0.809015 0
    outer loop
      vertex -0.809016 -41.9122 -2
      vertex -0.309016 -41.5489 0
      vertex -0.809016 -41.9122 0
    endloop
  endfacet
  facet normal 0.587788 -0.809015 0
    outer loop
      vertex -0.309016 -41.5489 0
      vertex -0.809016 -41.9122 -2
      vertex -0.309016 -41.5489 -2
    endloop
  endfacet
  facet normal -0.587788 -0.809015 0
    outer loop
      vertex 0.309016 -41.5489 -2
      vertex 0.809016 -41.9122 0
      vertex 0.309016 -41.5489 0
    endloop
  endfacet
  facet normal -0.587788 -0.809015 -0
    outer loop
      vertex 0.809016 -41.9122 0
      vertex 0.309016 -41.5489 -2
      vertex 0.809016 -41.9122 -2
    endloop
  endfacet
  facet normal 0.951056 0.309018 7.61106e-07
    outer loop
      vertex -1.61803 -43.6756 2
      vertex -2 -42.5 1.2
      vertex -1.8 -43.1155 2
    endloop
  endfacet
  facet normal 0.951056 0.309017 0
    outer loop
      vertex -2 -42.5 1.2
      vertex -1.61803 -43.6756 2
      vertex -1.61803 -43.6756 0
    endloop
  endfacet
  facet normal 0.951056 0.309017 0
    outer loop
      vertex -2 -42.5 1.2
      vertex -1.61803 -43.6756 0
      vertex -2 -42.5 0
    endloop
  endfacet
  facet normal -0.951056 0.309017 0
    outer loop
      vertex 1.61803 -43.6756 0
      vertex 2 -42.5 1.2
      vertex 2 -42.5 0
    endloop
  endfacet
  facet normal -0.951056 0.309017 0
    outer loop
      vertex 1.61803 -43.6756 2
      vertex 2 -42.5 1.2
      vertex 1.61803 -43.6756 0
    endloop
  endfacet
  facet normal -0.951056 0.309018 7.61106e-07
    outer loop
      vertex 2 -42.5 1.2
      vertex 1.61803 -43.6756 2
      vertex 1.8 -43.1155 2
    endloop
  endfacet
  facet normal 3.08616e-06 1 -0
    outer loop
      vertex 0.618033 -44.4021 0
      vertex -0.618033 -44.4021 2
      vertex 0.618033 -44.4021 2
    endloop
  endfacet
  facet normal 3.08616e-06 1 0
    outer loop
      vertex -0.618033 -44.4021 2
      vertex 0.618033 -44.4021 0
      vertex -0.618033 -44.4021 0
    endloop
  endfacet
  facet normal 0.587784 0.809018 -0
    outer loop
      vertex -0.618033 -44.4021 0
      vertex -1.61803 -43.6756 2
      vertex -0.618033 -44.4021 2
    endloop
  endfacet
  facet normal 0.587784 0.809018 0
    outer loop
      vertex -1.61803 -43.6756 2
      vertex -0.618033 -44.4021 0
      vertex -1.61803 -43.6756 0
    endloop
  endfacet
  facet normal -0.587786 0.809017 0
    outer loop
      vertex 1.61803 -43.6756 0
      vertex 0.618033 -44.4021 2
      vertex 1.61803 -43.6756 2
    endloop
  endfacet
  facet normal -0.587786 0.809017 0
    outer loop
      vertex 0.618033 -44.4021 2
      vertex 1.61803 -43.6756 0
      vertex 0.618033 -44.4021 0
    endloop
  endfacet
  facet normal 0.951056 -0.309018 7.61106e-07
    outer loop
      vertex -2 -42.5 1.2
      vertex -1.61803 -41.3244 2
      vertex -1.8 -41.8845 2
    endloop
  endfacet
  facet normal 0.951056 -0.309017 0
    outer loop
      vertex -1.61803 -41.3244 2
      vertex -2 -42.5 1.2
      vertex -1.61803 -41.3244 0
    endloop
  endfacet
  facet normal 0.951056 -0.309017 0
    outer loop
      vertex -1.61803 -41.3244 0
      vertex -2 -42.5 1.2
      vertex -2 -42.5 0
    endloop
  endfacet
  facet normal 0 0 1
    outer loop
      vertex 1 -42.5 0
      vertex 2 -42.5 0
      vertex 1.61803 -41.3244 0
    endloop
  endfacet
  facet normal 0 0 1
    outer loop
      vertex 2 -42.5 0
      vertex 1 -42.5 0
      vertex 1.61803 -43.6756 0
    endloop
  endfacet
  facet normal 0 0 1
    outer loop
      vertex 1.61803 -41.3244 0
      vertex 0.809016 -41.9122 0
      vertex 1 -42.5 0
    endloop
  endfacet
  facet normal 0 0 1
    outer loop
      vertex 0.618033 -40.5979 0
      vertex 0.809016 -41.9122 0
      vertex 1.61803 -41.3244 0
    endloop
  endfacet
  facet normal 0 0 1
    outer loop
      vertex 0.618033 -40.5979 0
      vertex 0.309016 -41.5489 0
      vertex 0.809016 -41.9122 0
    endloop
  endfacet
  facet normal 0 0 1
    outer loop
      vertex 0.618033 -40.5979 0
      vertex -0.309016 -41.5489 0
      vertex 0.309016 -41.5489 0
    endloop
  endfacet
  facet normal -0 0 1
    outer loop
      vertex -0.618033 -40.5979 0
      vertex -0.309016 -41.5489 0
      vertex 0.618033 -40.5979 0
    endloop
  endfacet
  facet normal 0 0 1
    outer loop
      vertex -0.618033 -40.5979 0
      vertex -0.809016 -41.9122 0
      vertex -0.309016 -41.5489 0
    endloop
  endfacet
  facet normal -0 0 1
    outer loop
      vertex -1.61803 -41.3244 0
      vertex -0.809016 -41.9122 0
      vertex -0.618033 -40.5979 0
    endloop
  endfacet
  facet normal 0 0 1
    outer loop
      vertex -0.809016 -41.9122 0
      vertex -1.61803 -41.3244 0
      vertex -1 -42.5 0
    endloop
  endfacet
  facet normal -0 0 1
    outer loop
      vertex 0.809016 -43.0878 0
      vertex 1.61803 -43.6756 0
      vertex 1 -42.5 0
    endloop
  endfacet
  facet normal 0 0 1
    outer loop
      vertex 0.809016 -43.0878 0
      vertex 0.618033 -44.4021 0
      vertex 1.61803 -43.6756 0
    endloop
  endfacet
  facet normal -0 0 1
    outer loop
      vertex 0.309016 -43.4511 0
      vertex 0.618033 -44.4021 0
      vertex 0.809016 -43.0878 0
    endloop
  endfacet
  facet normal -0 0 1
    outer loop
      vertex -0.309016 -43.4511 0
      vertex 0.618033 -44.4021 0
      vertex 0.309016 -43.4511 0
    endloop
  endfacet
  facet normal 0 0 1
    outer loop
      vertex -0.309016 -43.4511 0
      vertex -0.618033 -44.4021 0
      vertex 0.618033 -44.4021 0
    endloop
  endfacet
  facet normal 0 0 1
    outer loop
      vertex -0.809016 -43.0878 0
      vertex -0.618033 -44.4021 0
      vertex -0.309016 -43.4511 0
    endloop
  endfacet
  facet normal 0 0 1
    outer loop
      vertex -1.61803 -43.6756 0
      vertex -0.809016 -43.0878 0
      vertex -1 -42.5 0
    endloop
  endfacet
  facet normal 0 0 1
    outer loop
      vertex -2 -42.5 0
      vertex -1 -42.5 0
      vertex -1.61803 -41.3244 0
    endloop
  endfacet
  facet normal 0 0 1
    outer loop
      vertex -0.809016 -43.0878 0
      vertex -1.61803 -43.6756 0
      vertex -0.618033 -44.4021 0
    endloop
  endfacet
  facet normal 0 0 1
    outer loop
      vertex -1 -42.5 0
      vertex -2 -42.5 0
      vertex -1.61803 -43.6756 0
    endloop
  endfacet
  facet normal -0.951056 -0.309017 0
    outer loop
      vertex 2 -42.5 1.2
      vertex 1.61803 -41.3244 2
      vertex 1.61803 -41.3244 0
    endloop
  endfacet
  facet normal -0.951056 -0.309017 -0
    outer loop
      vertex 2 -42.5 1.2
      vertex 1.61803 -41.3244 0
      vertex 2 -42.5 0
    endloop
  endfacet
  facet normal -0.951056 -0.309018 7.61106e-07
    outer loop
      vertex 1.61803 -41.3244 2
      vertex 2 -42.5 1.2
      vertex 1.8 -41.8845 2
    endloop
  endfacet
  facet normal 0.587786 -0.809017 0
    outer loop
      vertex -1.61803 -41.3244 0
      vertex -0.618033 -40.5979 2
      vertex -1.61803 -41.3244 2
    endloop
  endfacet
  facet normal 0.587786 -0.809017 0
    outer loop
      vertex -0.618033 -40.5979 2
      vertex -1.61803 -41.3244 0
      vertex -0.618033 -40.5979 0
    endloop
  endfacet
  facet normal -0.587786 -0.809017 0
    outer loop
      vertex 0.618033 -40.5979 0
      vertex 1.61803 -41.3244 2
      vertex 0.618033 -40.5979 2
    endloop
  endfacet
  facet normal -0.587786 -0.809017 -0
    outer loop
      vertex 1.61803 -41.3244 2
      vertex 0.618033 -40.5979 0
      vertex 1.61803 -41.3244 0
    endloop
  endfacet
  facet normal 0 -1 0
    outer loop
      vertex -0.618033 -40.5979 0
      vertex 0.618033 -40.5979 2
      vertex -0.618033 -40.5979 2
    endloop
  endfacet
  facet normal 0 -1 -0
    outer loop
      vertex 0.618033 -40.5979 2
      vertex -0.618033 -40.5979 0
      vertex 0.618033 -40.5979 0
    endloop
  endfacet
endsolid OpenSCAD_Model
