solid OpenSCAD_Model
  facet normal -1 0 0
    outer loop
      vertex -2.8 -37.5 -2
      vertex -2.8 37.5 2
      vertex -2.8 37.5 -2
    endloop
  endfacet
  facet normal -1 -0 0
    outer loop
      vertex -2.8 37.5 2
      vertex -2.8 -37.5 -2
      vertex -2.8 -37.5 2
    endloop
  endfacet
  facet normal -0 0 1
    outer loop
      vertex 0.809016 18.1622 2
      vertex 1 -18.75 2
      vertex 1 18.75 2
    endloop
  endfacet
  facet normal 0 0 1
    outer loop
      vertex 0.809016 18.1622 2
      vertex 0.809016 -18.1622 2
      vertex 1 -18.75 2
    endloop
  endfacet
  facet normal -0 0 1
    outer loop
      vertex 0.309016 17.7989 2
      vertex 0.809016 -18.1622 2
      vertex 0.809016 18.1622 2
    endloop
  endfacet
  facet normal 0 0 1
    outer loop
      vertex 0.309016 17.7989 2
      vertex 0.309016 -17.7989 2
      vertex 0.809016 -18.1622 2
    endloop
  endfacet
  facet normal -0 0 1
    outer loop
      vertex -0.309016 17.7989 2
      vertex 0.309016 -17.7989 2
      vertex 0.309016 17.7989 2
    endloop
  endfacet
  facet normal 0 0 1
    outer loop
      vertex -0.309016 17.7989 2
      vertex -0.309016 -17.7989 2
      vertex 0.309016 -17.7989 2
    endloop
  endfacet
  facet normal 0 0 1
    outer loop
      vertex -0.809016 18.1622 2
      vertex -0.309016 -17.7989 2
      vertex -0.309016 17.7989 2
    endloop
  endfacet
  facet normal 0 0 1
    outer loop
      vertex -0.809016 18.1622 2
      vertex -0.809016 -18.1622 2
      vertex -0.309016 -17.7989 2
    endloop
  endfacet
  facet normal 0 0 1
    outer loop
      vertex -1 18.75 2
      vertex -0.809016 -18.1622 2
      vertex -0.809016 18.1622 2
    endloop
  endfacet
  facet normal 0 0 1
    outer loop
      vertex -0.809016 -18.1622 2
      vertex -1 18.75 2
      vertex -1 -18.75 2
    endloop
  endfacet
  facet normal 0 0 1
    outer loop
      vertex 1.8 37.5 2
      vertex 0.809016 19.3378 2
      vertex 1 18.75 2
    endloop
  endfacet
  facet normal 0 0 1
    outer loop
      vertex -1.8 37.5 2
      vertex 1.8 37.5 2
      vertex 0.618033 38.0979 2
    endloop
  endfacet
  facet normal 0 0 1
    outer loop
      vertex 1.8 37.5 2
      vertex 0.309016 19.7011 2
      vertex 0.809016 19.3378 2
    endloop
  endfacet
  facet normal 0 0 1
    outer loop
      vertex 1.8 37.5 2
      vertex -1.8 37.5 2
      vertex 0.309016 19.7011 2
    endloop
  endfacet
  facet normal 0 0 1
    outer loop
      vertex -1.8 37.5 2
      vertex 0.618033 38.0979 2
      vertex -0.618033 38.0979 2
    endloop
  endfacet
  facet normal 0 0 1
    outer loop
      vertex 0.309016 19.7011 2
      vertex -1.8 37.5 2
      vertex -0.309016 19.7011 2
    endloop
  endfacet
  facet normal -0 0 1
    outer loop
      vertex -2.8 37.5 2
      vertex -0.309016 19.7011 2
      vertex -1.8 37.5 2
    endloop
  endfacet
  facet normal 0 0 1
    outer loop
      vertex -0.309016 19.7011 2
      vertex -2.8 37.5 2
      vertex -0.809016 19.3378 2
    endloop
  endfacet
  facet normal 0 0 1
    outer loop
      vertex -1.8 37.5 2
      vertex -0.618033 38.0979 2
      vertex -1.61803 38.8244 2
    endloop
  endfacet
  facet normal 0 0 1
    outer loop
      vertex 1.8 -37.5 2
      vertex 1.61803 -38.8244 2
      vertex 1.8 -39.3845 2
    endloop
  endfacet
  facet normal 0 0 1
    outer loop
      vertex 1.8 -37.5 2
      vertex 0.618033 -38.0979 2
      vertex 1.61803 -38.8244 2
    endloop
  endfacet
  facet normal -0 0 1
    outer loop
      vertex -4.59243e-15 -37.5 2
      vertex 0.618033 -38.0979 2
      vertex 1.8 -37.5 2
    endloop
  endfacet
  facet normal 0 0 1
    outer loop
      vertex -4.59243e-15 -37.5 2
      vertex -0.618033 -38.0979 2
      vertex 0.618033 -38.0979 2
    endloop
  endfacet
  facet normal 0 0 1
    outer loop
      vertex -1.8 -37.5 2
      vertex -4.59243e-15 -37.5 2
      vertex -0.309016 -19.7011 2
    endloop
  endfacet
  facet normal 0 0 1
    outer loop
      vertex -2.8 -37.5 2
      vertex -0.309016 -19.7011 2
      vertex -0.809016 -19.3378 2
    endloop
  endfacet
  facet normal 0 0 1
    outer loop
      vertex -2.8 -37.5 2
      vertex -0.809016 -19.3378 2
      vertex -1 -18.75 2
    endloop
  endfacet
  facet normal 0 0 1
    outer loop
      vertex -4.59243e-15 -37.5 2
      vertex -1.8 -37.5 2
      vertex -0.618033 -38.0979 2
    endloop
  endfacet
  facet normal 0 0 1
    outer loop
      vertex -0.809016 19.3378 2
      vertex -2.8 37.5 2
      vertex -1 18.75 2
    endloop
  endfacet
  facet normal 0 0 1
    outer loop
      vertex -1.8 37.5 2
      vertex -1.61803 38.8244 2
      vertex -1.8 39.3845 2
    endloop
  endfacet
  facet normal 0 0 1
    outer loop
      vertex -1 18.75 2
      vertex -2.8 37.5 2
      vertex -1 -18.75 2
    endloop
  endfacet
  facet normal 0 0 1
    outer loop
      vertex -0.618033 -38.0979 2
      vertex -1.8 -37.5 2
      vertex -1.61803 -38.8244 2
    endloop
  endfacet
  facet normal 0 0 1
    outer loop
      vertex -1.61803 -38.8244 2
      vertex -1.8 -37.5 2
      vertex -1.8 -39.3845 2
    endloop
  endfacet
  facet normal -0 0 1
    outer loop
      vertex 1.61803 38.8244 2
      vertex 1.8 37.5 2
      vertex 1.8 39.3845 2
    endloop
  endfacet
  facet normal -0 0 1
    outer loop
      vertex 0.618033 38.0979 2
      vertex 1.8 37.5 2
      vertex 1.61803 38.8244 2
    endloop
  endfacet
  facet normal 0 0 1
    outer loop
      vertex 1.8 37.5 2
      vertex 1 18.75 2
      vertex 1.8 -37.5 2
    endloop
  endfacet
  facet normal -0 0 1
    outer loop
      vertex 1 -18.75 2
      vertex 1.8 -37.5 2
      vertex 1 18.75 2
    endloop
  endfacet
  facet normal -0 0 1
    outer loop
      vertex 0.809016 -19.3378 2
      vertex 1.8 -37.5 2
      vertex 1 -18.75 2
    endloop
  endfacet
  facet normal -0 0 1
    outer loop
      vertex 0.309016 -19.7011 2
      vertex 1.8 -37.5 2
      vertex 0.809016 -19.3378 2
    endloop
  endfacet
  facet normal 0 0 1
    outer loop
      vertex 0.309016 -19.7011 2
      vertex -4.59243e-15 -37.5 2
      vertex 1.8 -37.5 2
    endloop
  endfacet
  facet normal 0 -0 1
    outer loop
      vertex -4.59243e-15 -37.5 2
      vertex 0.309016 -19.7011 2
      vertex -0.309016 -19.7011 2
    endloop
  endfacet
  facet normal -0 0 1
    outer loop
      vertex 1.8 37.5 2
      vertex 2.8 -37.5 2
      vertex 2.8 37.5 2
    endloop
  endfacet
  facet normal 0 0 1
    outer loop
      vertex 2.8 -37.5 2
      vertex 1.8 37.5 2
      vertex 1.8 -37.5 2
    endloop
  endfacet
  facet normal 0 0 1
    outer loop
      vertex -2.8 -37.5 2
      vertex -1 -18.75 2
      vertex -2.8 37.5 2
    endloop
  endfacet
  facet normal 0 0 1
    outer loop
      vertex -0.309016 -19.7011 2
      vertex -2.8 -37.5 2
      vertex -1.8 -37.5 2
    endloop
  endfacet
  facet normal 0 0 0
    outer loop
      vertex 2.8 -37.5 2
      vertex 1.8 -37.5 2
      vertex -4.59243e-15 -37.5 2
    endloop
  endfacet
  facet normal 1 -0 0
    outer loop
      vertex 2.8 -37.5 2
      vertex 2.8 37.5 -2
      vertex 2.8 37.5 2
    endloop
  endfacet
  facet normal 1 0 0
    outer loop
      vertex 2.8 37.5 -2
      vertex 2.8 -37.5 2
      vertex 2.8 -37.5 -2
    endloop
  endfacet
  facet normal 0 1 -0
    outer loop
      vertex 2.8 37.5 -2
      vertex 1.8 37.5 2
      vertex 2.8 37.5 2
    endloop
  endfacet
  facet normal 0 1 0
    outer loop
      vertex -1.8 37.5 2
      vertex -2.8 37.5 -2
      vertex -2.8 37.5 2
    endloop
  endfacet
  facet normal 0 0 -1
    outer loop
      vertex 0.309016 19.7011 -2
      vertex 2.8 37.5 -2
      vertex 0.809016 19.3378 -2
    endloop
  endfacet
  facet normal 0 0 -1
    outer loop
      vertex 2.8 37.5 -2
      vertex 0.809016 39.4122 -2
      vertex 1 40 -2
    endloop
  endfacet
  facet normal 0 0 -1
    outer loop
      vertex -2.8 37.5 -2
      vertex 2.8 37.5 -2
      vertex 0.309016 19.7011 -2
    endloop
  endfacet
  facet normal 0 0 -1
    outer loop
      vertex 2.8 37.5 -2
      vertex 0.309016 39.0489 -2
      vertex 0.809016 39.4122 -2
    endloop
  endfacet
  facet normal 0 0 -1
    outer loop
      vertex -2.8 37.5 -2
      vertex 0.309016 19.7011 -2
      vertex -0.309016 19.7011 -2
    endloop
  endfacet
  facet normal 0 0 -1
    outer loop
      vertex 2.8 37.5 -2
      vertex -2.8 37.5 -2
      vertex 0.309016 39.0489 -2
    endloop
  endfacet
  facet normal 0 0 -1
    outer loop
      vertex -2.8 37.5 -2
      vertex -0.309016 19.7011 -2
      vertex -0.809016 19.3378 -2
    endloop
  endfacet
  facet normal -0 0 -1
    outer loop
      vertex 0.309016 39.0489 -2
      vertex -2.8 37.5 -2
      vertex -0.309016 39.0489 -2
    endloop
  endfacet
  facet normal 0 0 -1
    outer loop
      vertex -2.8 37.5 -2
      vertex -0.809016 19.3378 -2
      vertex -1 18.75 -2
    endloop
  endfacet
  facet normal -0 0 -1
    outer loop
      vertex -0.309016 39.0489 -2
      vertex -2.8 37.5 -2
      vertex -0.809016 39.4122 -2
    endloop
  endfacet
  facet normal 0 0 -1
    outer loop
      vertex 0.809016 -18.1622 -2
      vertex 1 18.75 -2
      vertex 1 -18.75 -2
    endloop
  endfacet
  facet normal 0 0 -1
    outer loop
      vertex 0.809016 -18.1622 -2
      vertex 0.809016 18.1622 -2
      vertex 1 18.75 -2
    endloop
  endfacet
  facet normal 0 0 -1
    outer loop
      vertex 0.309016 -17.7989 -2
      vertex 0.809016 18.1622 -2
      vertex 0.809016 -18.1622 -2
    endloop
  endfacet
  facet normal 0 0 -1
    outer loop
      vertex 0.309016 -17.7989 -2
      vertex 0.309016 17.7989 -2
      vertex 0.809016 18.1622 -2
    endloop
  endfacet
  facet normal 0 0 -1
    outer loop
      vertex -0.309016 -17.7989 -2
      vertex 0.309016 17.7989 -2
      vertex 0.309016 -17.7989 -2
    endloop
  endfacet
  facet normal 0 0 -1
    outer loop
      vertex -0.309016 -17.7989 -2
      vertex -0.309016 17.7989 -2
      vertex 0.309016 17.7989 -2
    endloop
  endfacet
  facet normal 0 0 -1
    outer loop
      vertex -0.809016 -18.1622 -2
      vertex -0.309016 17.7989 -2
      vertex -0.309016 -17.7989 -2
    endloop
  endfacet
  facet normal 0 0 -1
    outer loop
      vertex -0.809016 -18.1622 -2
      vertex -0.809016 18.1622 -2
      vertex -0.309016 17.7989 -2
    endloop
  endfacet
  facet normal 0 0 -1
    outer loop
      vertex -1 -18.75 -2
      vertex -0.809016 18.1622 -2
      vertex -0.809016 -18.1622 -2
    endloop
  endfacet
  facet normal -0 0 -1
    outer loop
      vertex -0.809016 18.1622 -2
      vertex -1 -18.75 -2
      vertex -1 18.75 -2
    endloop
  endfacet
  facet normal 0 0 -1
    outer loop
      vertex 0.309016 -39.0489 -2
      vertex 2.8 -37.5 -2
      vertex 0.809016 -39.4122 -2
    endloop
  endfacet
  facet normal 0 0 -1
    outer loop
      vertex 2.8 -37.5 -2
      vertex 0.809016 -19.3378 -2
      vertex 1 -18.75 -2
    endloop
  endfacet
  facet normal 0 0 -1
    outer loop
      vertex -2.8 -37.5 -2
      vertex 2.8 -37.5 -2
      vertex 0.309016 -39.0489 -2
    endloop
  endfacet
  facet normal 0 0 -1
    outer loop
      vertex 2.8 -37.5 -2
      vertex 0.309016 -19.7011 -2
      vertex 0.809016 -19.3378 -2
    endloop
  endfacet
  facet normal 0 0 -1
    outer loop
      vertex -2.8 -37.5 -2
      vertex 0.309016 -39.0489 -2
      vertex -0.309016 -39.0489 -2
    endloop
  endfacet
  facet normal 0 0 -1
    outer loop
      vertex 2.8 -37.5 -2
      vertex -2.8 -37.5 -2
      vertex 0.309016 -19.7011 -2
    endloop
  endfacet
  facet normal 0 0 -1
    outer loop
      vertex -2.8 -37.5 -2
      vertex -0.309016 -39.0489 -2
      vertex -0.809016 -39.4122 -2
    endloop
  endfacet
  facet normal -0 0 -1
    outer loop
      vertex 0.309016 -19.7011 -2
      vertex -2.8 -37.5 -2
      vertex -0.309016 -19.7011 -2
    endloop
  endfacet
  facet normal 0 0 -1
    outer loop
      vertex -2.8 -37.5 -2
      vertex -0.809016 -39.4122 -2
      vertex -1 -40 -2
    endloop
  endfacet
  facet normal -0 0 -1
    outer loop
      vertex -0.309016 -19.7011 -2
      vertex -2.8 -37.5 -2
      vertex -0.809016 -19.3378 -2
    endloop
  endfacet
  facet normal 0 0 -1
    outer loop
      vertex 1 -40 -2
      vertex 2.8 -37.5 -2
      vertex 2.8 -42.5 -2
    endloop
  endfacet
  facet normal 0 0 -1
    outer loop
      vertex 2.8 -37.5 -2
      vertex 1 -18.75 -2
      vertex 2.8 37.5 -2
    endloop
  endfacet
  facet normal 0 0 -1
    outer loop
      vertex 0.809016 -39.4122 -2
      vertex 2.8 -37.5 -2
      vertex 1 -40 -2
    endloop
  endfacet
  facet normal 0 0 -1
    outer loop
      vertex 2.8 -42.5 -2
      vertex 0.809016 -40.5878 -2
      vertex 1 -40 -2
    endloop
  endfacet
  facet normal 0 0 -1
    outer loop
      vertex 2.8 -42.5 -2
      vertex 0.309016 -40.9511 -2
      vertex 0.809016 -40.5878 -2
    endloop
  endfacet
  facet normal 0 0 -1
    outer loop
      vertex 2.8 -42.5 -2
      vertex -0.309016 -40.9511 -2
      vertex 0.309016 -40.9511 -2
    endloop
  endfacet
  facet normal -0 0 -1
    outer loop
      vertex -0.809016 -19.3378 -2
      vertex -2.8 -37.5 -2
      vertex -1 -18.75 -2
    endloop
  endfacet
  facet normal -0 0 -1
    outer loop
      vertex -1 -18.75 -2
      vertex -2.8 -37.5 -2
      vertex -1 18.75 -2
    endloop
  endfacet
  facet normal 0 0 -1
    outer loop
      vertex -2.8 -37.5 -2
      vertex -1 -40 -2
      vertex -2.8 -42.5 -2
    endloop
  endfacet
  facet normal -0 0 -1
    outer loop
      vertex -0.809016 -40.5878 -2
      vertex -2.8 -42.5 -2
      vertex -1 -40 -2
    endloop
  endfacet
  facet normal -0 0 -1
    outer loop
      vertex -0.309016 -40.9511 -2
      vertex -2.8 -42.5 -2
      vertex -0.809016 -40.5878 -2
    endloop
  endfacet
  facet normal 0 0 -1
    outer loop
      vertex -2.8 -42.5 -2
      vertex -0.309016 -40.9511 -2
      vertex 2.8 -42.5 -2
    endloop
  endfacet
  facet normal 0 0 -1
    outer loop
      vertex 1 18.75 -2
      vertex 2.8 37.5 -2
      vertex 1 -18.75 -2
    endloop
  endfacet
  facet normal 0 0 -1
    outer loop
      vertex 0.809016 19.3378 -2
      vertex 2.8 37.5 -2
      vertex 1 18.75 -2
    endloop
  endfacet
  facet normal 0 0 -1
    outer loop
      vertex 2.8 37.5 -2
      vertex 1 40 -2
      vertex 2.8 42.5 -2
    endloop
  endfacet
  facet normal 0 0 -1
    outer loop
      vertex 0.809016 40.5878 -2
      vertex 2.8 42.5 -2
      vertex 1 40 -2
    endloop
  endfacet
  facet normal 0 0 -1
    outer loop
      vertex 0.309016 40.9511 -2
      vertex 2.8 42.5 -2
      vertex 0.809016 40.5878 -2
    endloop
  endfacet
  facet normal 0 0 -1
    outer loop
      vertex -0.309016 40.9511 -2
      vertex 2.8 42.5 -2
      vertex 0.309016 40.9511 -2
    endloop
  endfacet
  facet normal 0 0 -1
    outer loop
      vertex -2.8 37.5 -2
      vertex -1 18.75 -2
      vertex -2.8 -37.5 -2
    endloop
  endfacet
  facet normal -0 0 -1
    outer loop
      vertex -0.809016 39.4122 -2
      vertex -2.8 37.5 -2
      vertex -1 40 -2
    endloop
  endfacet
  facet normal 0 0 -1
    outer loop
      vertex -2.8 42.5 -2
      vertex -1 40 -2
      vertex -2.8 37.5 -2
    endloop
  endfacet
  facet normal 0 0 -1
    outer loop
      vertex -0.309016 40.9511 -2
      vertex -2.8 42.5 -2
      vertex 2.8 42.5 -2
    endloop
  endfacet
  facet normal 0 0 -1
    outer loop
      vertex -0.809016 40.5878 -2
      vertex -2.8 42.5 -2
      vertex -0.309016 40.9511 -2
    endloop
  endfacet
  facet normal 0 0 -1
    outer loop
      vertex -1 40 -2
      vertex -2.8 42.5 -2
      vertex -0.809016 40.5878 -2
    endloop
  endfacet
  facet normal 0 -1 0
    outer loop
      vertex -2.8 -37.5 2
      vertex -2.8 -37.5 -2
      vertex -1.8 -37.5 2
    endloop
  endfacet
  facet normal 0 -1 0
    outer loop
      vertex -4.59243e-15 -37.5 -2
      vertex 2.8 -37.5 2
      vertex -4.59243e-15 -37.5 2
    endloop
  endfacet
  facet normal 0 -1 -0
    outer loop
      vertex 2.8 -37.5 2
      vertex -4.59243e-15 -37.5 -2
      vertex 2.8 -37.5 -2
    endloop
  endfacet
  facet normal -0.951056 -0.309019 0
    outer loop
      vertex 1 18.75 -2
      vertex 0.809016 19.3378 2
      vertex 0.809016 19.3378 -2
    endloop
  endfacet
  facet normal -0.951056 -0.309019 0
    outer loop
      vertex 0.809016 19.3378 2
      vertex 1 18.75 -2
      vertex 1 18.75 2
    endloop
  endfacet
  facet normal 0 -1 0
    outer loop
      vertex -0.309016 19.7011 -2
      vertex 0.309016 19.7011 2
      vertex -0.309016 19.7011 2
    endloop
  endfacet
  facet normal 0 -1 -0
    outer loop
      vertex 0.309016 19.7011 2
      vertex -0.309016 19.7011 -2
      vertex 0.309016 19.7011 -2
    endloop
  endfacet
  facet normal -0.587788 -0.809015 0
    outer loop
      vertex 0.309016 19.7011 -2
      vertex 0.809016 19.3378 2
      vertex 0.309016 19.7011 2
    endloop
  endfacet
  facet normal -0.587788 -0.809015 -0
    outer loop
      vertex 0.809016 19.3378 2
      vertex 0.309016 19.7011 -2
      vertex 0.809016 19.3378 -2
    endloop
  endfacet
  facet normal -0.587786 0.809017 0
    outer loop
      vertex 0.809016 18.1622 -2
      vertex 0.309016 17.7989 2
      vertex 0.809016 18.1622 2
    endloop
  endfacet
  facet normal -0.587786 0.809017 0
    outer loop
      vertex 0.309016 17.7989 2
      vertex 0.809016 18.1622 -2
      vertex 0.309016 17.7989 -2
    endloop
  endfacet
  facet normal 0.587786 0.809017 -0
    outer loop
      vertex -0.309016 17.7989 -2
      vertex -0.809016 18.1622 2
      vertex -0.309016 17.7989 2
    endloop
  endfacet
  facet normal 0.587786 0.809017 0
    outer loop
      vertex -0.809016 18.1622 2
      vertex -0.309016 17.7989 -2
      vertex -0.809016 18.1622 -2
    endloop
  endfacet
  facet normal 0.951056 -0.309019 0
    outer loop
      vertex -1 18.75 2
      vertex -0.809016 19.3378 -2
      vertex -0.809016 19.3378 2
    endloop
  endfacet
  facet normal 0.951056 -0.309019 0
    outer loop
      vertex -0.809016 19.3378 -2
      vertex -1 18.75 2
      vertex -1 18.75 -2
    endloop
  endfacet
  facet normal 0.951056 0.309018 0
    outer loop
      vertex -0.809016 18.1622 2
      vertex -1 18.75 -2
      vertex -1 18.75 2
    endloop
  endfacet
  facet normal 0.951056 0.309018 0
    outer loop
      vertex -1 18.75 -2
      vertex -0.809016 18.1622 2
      vertex -0.809016 18.1622 -2
    endloop
  endfacet
  facet normal 0.587788 -0.809015 0
    outer loop
      vertex -0.809016 19.3378 -2
      vertex -0.309016 19.7011 2
      vertex -0.809016 19.3378 2
    endloop
  endfacet
  facet normal 0.587788 -0.809015 0
    outer loop
      vertex -0.309016 19.7011 2
      vertex -0.809016 19.3378 -2
      vertex -0.309016 19.7011 -2
    endloop
  endfacet
  facet normal 0 1 -0
    outer loop
      vertex 0.309016 17.7989 -2
      vertex -0.309016 17.7989 2
      vertex 0.309016 17.7989 2
    endloop
  endfacet
  facet normal 0 1 0
    outer loop
      vertex -0.309016 17.7989 2
      vertex 0.309016 17.7989 -2
      vertex -0.309016 17.7989 -2
    endloop
  endfacet
  facet normal -0.951056 0.309018 0
    outer loop
      vertex 0.809016 18.1622 -2
      vertex 1 18.75 2
      vertex 1 18.75 -2
    endloop
  endfacet
  facet normal -0.951056 0.309018 0
    outer loop
      vertex 1 18.75 2
      vertex 0.809016 18.1622 -2
      vertex 0.809016 18.1622 2
    endloop
  endfacet
  facet normal -0.951056 -0.309018 0
    outer loop
      vertex 1 -18.75 -2
      vertex 0.809016 -18.1622 2
      vertex 0.809016 -18.1622 -2
    endloop
  endfacet
  facet normal -0.951056 -0.309018 0
    outer loop
      vertex 0.809016 -18.1622 2
      vertex 1 -18.75 -2
      vertex 1 -18.75 2
    endloop
  endfacet
  facet normal 0.951056 -0.309018 0
    outer loop
      vertex -1 -18.75 2
      vertex -0.809016 -18.1622 -2
      vertex -0.809016 -18.1622 2
    endloop
  endfacet
  facet normal 0.951056 -0.309018 0
    outer loop
      vertex -0.809016 -18.1622 -2
      vertex -1 -18.75 2
      vertex -1 -18.75 -2
    endloop
  endfacet
  facet normal 0 -1 0
    outer loop
      vertex -0.309016 -17.7989 -2
      vertex 0.309016 -17.7989 2
      vertex -0.309016 -17.7989 2
    endloop
  endfacet
  facet normal 0 -1 -0
    outer loop
      vertex 0.309016 -17.7989 2
      vertex -0.309016 -17.7989 -2
      vertex 0.309016 -17.7989 -2
    endloop
  endfacet
  facet normal -0.587786 -0.809017 0
    outer loop
      vertex 0.309016 -17.7989 -2
      vertex 0.809016 -18.1622 2
      vertex 0.309016 -17.7989 2
    endloop
  endfacet
  facet normal -0.587786 -0.809017 -0
    outer loop
      vertex 0.809016 -18.1622 2
      vertex 0.309016 -17.7989 -2
      vertex 0.809016 -18.1622 -2
    endloop
  endfacet
  facet normal 0.587786 -0.809017 0
    outer loop
      vertex -0.809016 -18.1622 -2
      vertex -0.309016 -17.7989 2
      vertex -0.809016 -18.1622 2
    endloop
  endfacet
  facet normal 0.587786 -0.809017 0
    outer loop
      vertex -0.309016 -17.7989 2
      vertex -0.809016 -18.1622 -2
      vertex -0.309016 -17.7989 -2
    endloop
  endfacet
  facet normal -0.951056 0.309019 0
    outer loop
      vertex 0.809016 -19.3378 -2
      vertex 1 -18.75 2
      vertex 1 -18.75 -2
    endloop
  endfacet
  facet normal -0.951056 0.309019 0
    outer loop
      vertex 1 -18.75 2
      vertex 0.809016 -19.3378 -2
      vertex 0.809016 -19.3378 2
    endloop
  endfacet
  facet normal 0.951056 0.309019 0
    outer loop
      vertex -0.809016 -19.3378 2
      vertex -1 -18.75 -2
      vertex -1 -18.75 2
    endloop
  endfacet
  facet normal 0.951056 0.309019 0
    outer loop
      vertex -1 -18.75 -2
      vertex -0.809016 -19.3378 2
      vertex -0.809016 -19.3378 -2
    endloop
  endfacet
  facet normal 0 1 -0
    outer loop
      vertex 0.309016 -19.7011 -2
      vertex -0.309016 -19.7011 2
      vertex 0.309016 -19.7011 2
    endloop
  endfacet
  facet normal 0 1 0
    outer loop
      vertex -0.309016 -19.7011 2
      vertex 0.309016 -19.7011 -2
      vertex -0.309016 -19.7011 -2
    endloop
  endfacet
  facet normal -0.587788 0.809015 0
    outer loop
      vertex 0.809016 -19.3378 -2
      vertex 0.309016 -19.7011 2
      vertex 0.809016 -19.3378 2
    endloop
  endfacet
  facet normal -0.587788 0.809015 0
    outer loop
      vertex 0.309016 -19.7011 2
      vertex 0.809016 -19.3378 -2
      vertex 0.309016 -19.7011 -2
    endloop
  endfacet
  facet normal 0.587788 0.809015 -0
    outer loop
      vertex -0.309016 -19.7011 -2
      vertex -0.809016 -19.3378 2
      vertex -0.309016 -19.7011 2
    endloop
  endfacet
  facet normal 0.587788 0.809015 0
    outer loop
      vertex -0.809016 -19.3378 2
      vertex -0.309016 -19.7011 -2
      vertex -0.809016 -19.3378 -2
    endloop
  endfacet
  facet normal -0.970143 0 0.242536
    outer loop
      vertex -2 40 1.2
      vertex -1.8 42.5 2
      vertex -2.8 42.5 -2
    endloop
  endfacet
  facet normal -0.970143 0 0.242536
    outer loop
      vertex -1.8 42.5 2
      vertex -2 40 1.2
      vertex -1.8 40.6155 2
    endloop
  endfacet
  facet normal -0.970143 0 0.242536
    outer loop
      vertex -2.8 37.5 -2
      vertex -2 40 1.2
      vertex -2.8 42.5 -2
    endloop
  endfacet
  facet normal -0.970143 0 0.242536
    outer loop
      vertex -1.8 37.5 2
      vertex -2 40 1.2
      vertex -2.8 37.5 -2
    endloop
  endfacet
  facet normal -0.970143 0 0.242536
    outer loop
      vertex -2 40 1.2
      vertex -1.8 37.5 2
      vertex -1.8 39.3845 2
    endloop
  endfacet
  facet normal 0.970143 0 0.242536
    outer loop
      vertex 2 40 1.2
      vertex 1.8 42.5 2
      vertex 1.8 40.6155 2
    endloop
  endfacet
  facet normal 0.970143 0 0.242536
    outer loop
      vertex 1.8 42.5 2
      vertex 2 40 1.2
      vertex 2.8 42.5 -2
    endloop
  endfacet
  facet normal 0.970143 -0 0.242536
    outer loop
      vertex 1.8 37.5 2
      vertex 2 40 1.2
      vertex 1.8 39.3845 2
    endloop
  endfacet
  facet normal 0.970143 0 0.242536
    outer loop
      vertex 2.8 37.5 -2
      vertex 2 40 1.2
      vertex 1.8 37.5 2
    endloop
  endfacet
  facet normal 0.970143 0 0.242536
    outer loop
      vertex 2 40 1.2
      vertex 2.8 37.5 -2
      vertex 2.8 42.5 -2
    endloop
  endfacet
  facet normal 0 1 0
    outer loop
      vertex 2.8 42.5 -2
      vertex -1.8 42.5 2
      vertex 1.8 42.5 2
    endloop
  endfacet
  facet normal 0 1 0
    outer loop
      vertex -1.8 42.5 2
      vertex 2.8 42.5 -2
      vertex -2.8 42.5 -2
    endloop
  endfacet
  facet normal 0 0 1
    outer loop
      vertex 1.8 42.5 2
      vertex 1.61803 41.1756 2
      vertex 1.8 40.6155 2
    endloop
  endfacet
  facet normal 0 0 1
    outer loop
      vertex 1.8 42.5 2
      vertex 0.618033 41.9021 2
      vertex 1.61803 41.1756 2
    endloop
  endfacet
  facet normal 0 0 1
    outer loop
      vertex 1.8 42.5 2
      vertex -0.618033 41.9021 2
      vertex 0.618033 41.9021 2
    endloop
  endfacet
  facet normal -0 0 1
    outer loop
      vertex -1.8 42.5 2
      vertex -0.618033 41.9021 2
      vertex 1.8 42.5 2
    endloop
  endfacet
  facet normal 0 0 1
    outer loop
      vertex -1.8 42.5 2
      vertex -1.61803 41.1756 2
      vertex -0.618033 41.9021 2
    endloop
  endfacet
  facet normal 0 0 1
    outer loop
      vertex -1.61803 41.1756 2
      vertex -1.8 42.5 2
      vertex -1.8 40.6155 2
    endloop
  endfacet
  facet normal -0.951056 -0.309019 0
    outer loop
      vertex 1 40 -2
      vertex 0.809016 40.5878 0
      vertex 0.809016 40.5878 -2
    endloop
  endfacet
  facet normal -0.951056 -0.309019 0
    outer loop
      vertex 0.809016 40.5878 0
      vertex 1 40 -2
      vertex 1 40 0
    endloop
  endfacet
  facet normal 0.951056 -0.309019 0
    outer loop
      vertex -1 40 0
      vertex -0.809016 40.5878 -2
      vertex -0.809016 40.5878 0
    endloop
  endfacet
  facet normal 0.951056 -0.309019 0
    outer loop
      vertex -0.809016 40.5878 -2
      vertex -1 40 0
      vertex -1 40 -2
    endloop
  endfacet
  facet normal 0 -1 0
    outer loop
      vertex -0.309016 40.9511 -2
      vertex 0.309016 40.9511 0
      vertex -0.309016 40.9511 0
    endloop
  endfacet
  facet normal 0 -1 -0
    outer loop
      vertex 0.309016 40.9511 0
      vertex -0.309016 40.9511 -2
      vertex 0.309016 40.9511 -2
    endloop
  endfacet
  facet normal -0.587788 -0.809015 0
    outer loop
      vertex 0.309016 40.9511 -2
      vertex 0.809016 40.5878 0
      vertex 0.309016 40.9511 0
    endloop
  endfacet
  facet normal -0.587788 -0.809015 -0
    outer loop
      vertex 0.809016 40.5878 0
      vertex 0.309016 40.9511 -2
      vertex 0.809016 40.5878 -2
    endloop
  endfacet
  facet normal 0.587788 -0.809015 0
    outer loop
      vertex -0.809016 40.5878 -2
      vertex -0.309016 40.9511 0
      vertex -0.809016 40.5878 0
    endloop
  endfacet
  facet normal 0.587788 -0.809015 0
    outer loop
      vertex -0.309016 40.9511 0
      vertex -0.809016 40.5878 -2
      vertex -0.309016 40.9511 -2
    endloop
  endfacet
  facet normal -0.951056 0.309019 0
    outer loop
      vertex 0.809016 39.4122 -2
      vertex 1 40 0
      vertex 1 40 -2
    endloop
  endfacet
  facet normal -0.951056 0.309019 0
    outer loop
      vertex 1 40 0
      vertex 0.809016 39.4122 -2
      vertex 0.809016 39.4122 0
    endloop
  endfacet
  facet normal 0.951056 0.309019 0
    outer loop
      vertex -0.809016 39.4122 0
      vertex -1 40 -2
      vertex -1 40 0
    endloop
  endfacet
  facet normal 0.951056 0.309019 0
    outer loop
      vertex -1 40 -2
      vertex -0.809016 39.4122 0
      vertex -0.809016 39.4122 -2
    endloop
  endfacet
  facet normal 0 1 -0
    outer loop
      vertex 0.309016 39.0489 -2
      vertex -0.309016 39.0489 0
      vertex 0.309016 39.0489 0
    endloop
  endfacet
  facet normal 0 1 0
    outer loop
      vertex -0.309016 39.0489 0
      vertex 0.309016 39.0489 -2
      vertex -0.309016 39.0489 -2
    endloop
  endfacet
  facet normal -0.587788 0.809015 0
    outer loop
      vertex 0.809016 39.4122 -2
      vertex 0.309016 39.0489 0
      vertex 0.809016 39.4122 0
    endloop
  endfacet
  facet normal -0.587788 0.809015 0
    outer loop
      vertex 0.309016 39.0489 0
      vertex 0.809016 39.4122 -2
      vertex 0.309016 39.0489 -2
    endloop
  endfacet
  facet normal 0.587788 0.809015 -0
    outer loop
      vertex -0.309016 39.0489 -2
      vertex -0.809016 39.4122 0
      vertex -0.309016 39.0489 0
    endloop
  endfacet
  facet normal 0.587788 0.809015 0
    outer loop
      vertex -0.809016 39.4122 0
      vertex -0.309016 39.0489 -2
      vertex -0.809016 39.4122 -2
    endloop
  endfacet
  facet normal -0.951056 -0.309017 0
    outer loop
      vertex 2 40 1.2
      vertex 1.61803 41.1756 2
      vertex 1.61803 41.1756 0
    endloop
  endfacet
  facet normal -0.951056 -0.309017 -0
    outer loop
      vertex 2 40 1.2
      vertex 1.61803 41.1756 0
      vertex 2 40 0
    endloop
  endfacet
  facet normal -0.951056 -0.309018 7.61106e-07
    outer loop
      vertex 1.61803 41.1756 2
      vertex 2 40 1.2
      vertex 1.8 40.6155 2
    endloop
  endfacet
  facet normal 0.951056 -0.309018 7.61106e-07
    outer loop
      vertex -2 40 1.2
      vertex -1.61803 41.1756 2
      vertex -1.8 40.6155 2
    endloop
  endfacet
  facet normal 0.951056 -0.309017 0
    outer loop
      vertex -1.61803 41.1756 2
      vertex -2 40 1.2
      vertex -1.61803 41.1756 0
    endloop
  endfacet
  facet normal 0.951056 -0.309017 0
    outer loop
      vertex -1.61803 41.1756 0
      vertex -2 40 1.2
      vertex -2 40 0
    endloop
  endfacet
  facet normal 0 -1 0
    outer loop
      vertex -0.618033 41.9021 0
      vertex 0.618033 41.9021 2
      vertex -0.618033 41.9021 2
    endloop
  endfacet
  facet normal 0 -1 -0
    outer loop
      vertex 0.618033 41.9021 2
      vertex -0.618033 41.9021 0
      vertex 0.618033 41.9021 0
    endloop
  endfacet
  facet normal -0.587786 -0.809017 0
    outer loop
      vertex 0.618033 41.9021 0
      vertex 1.61803 41.1756 2
      vertex 0.618033 41.9021 2
    endloop
  endfacet
  facet normal -0.587786 -0.809017 -0
    outer loop
      vertex 1.61803 41.1756 2
      vertex 0.618033 41.9021 0
      vertex 1.61803 41.1756 0
    endloop
  endfacet
  facet normal 0.587786 -0.809017 0
    outer loop
      vertex -1.61803 41.1756 0
      vertex -0.618033 41.9021 2
      vertex -1.61803 41.1756 2
    endloop
  endfacet
  facet normal 0.587786 -0.809017 0
    outer loop
      vertex -0.618033 41.9021 2
      vertex -1.61803 41.1756 0
      vertex -0.618033 41.9021 0
    endloop
  endfacet
  facet normal -0.951056 0.309017 0
    outer loop
      vertex 1.61803 38.8244 0
      vertex 2 40 1.2
      vertex 2 40 0
    endloop
  endfacet
  facet normal -0.951056 0.309017 0
    outer loop
      vertex 1.61803 38.8244 2
      vertex 2 40 1.2
      vertex 1.61803 38.8244 0
    endloop
  endfacet
  facet normal -0.951056 0.309018 7.61106e-07
    outer loop
      vertex 2 40 1.2
      vertex 1.61803 38.8244 2
      vertex 1.8 39.3845 2
    endloop
  endfacet
  facet normal 0 0 1
    outer loop
      vertex 1 40 0
      vertex 2 40 0
      vertex 1.61803 41.1756 0
    endloop
  endfacet
  facet normal 0 0 1
    outer loop
      vertex 2 40 0
      vertex 1 40 0
      vertex 1.61803 38.8244 0
    endloop
  endfacet
  facet normal 0 0 1
    outer loop
      vertex 1.61803 41.1756 0
      vertex 0.809016 40.5878 0
      vertex 1 40 0
    endloop
  endfacet
  facet normal 0 0 1
    outer loop
      vertex 0.618033 41.9021 0
      vertex 0.809016 40.5878 0
      vertex 1.61803 41.1756 0
    endloop
  endfacet
  facet normal 0 0 1
    outer loop
      vertex 0.618033 41.9021 0
      vertex 0.309016 40.9511 0
      vertex 0.809016 40.5878 0
    endloop
  endfacet
  facet normal 0 0 1
    outer loop
      vertex 0.618033 41.9021 0
      vertex -0.309016 40.9511 0
      vertex 0.309016 40.9511 0
    endloop
  endfacet
  facet normal -0 0 1
    outer loop
      vertex -0.618033 41.9021 0
      vertex -0.309016 40.9511 0
      vertex 0.618033 41.9021 0
    endloop
  endfacet
  facet normal 0 0 1
    outer loop
      vertex -0.618033 41.9021 0
      vertex -0.809016 40.5878 0
      vertex -0.309016 40.9511 0
    endloop
  endfacet
  facet normal -0 0 1
    outer loop
      vertex -1.61803 41.1756 0
      vertex -0.809016 40.5878 0
      vertex -0.618033 41.9021 0
    endloop
  endfacet
  facet normal 0 0 1
    outer loop
      vertex -0.809016 40.5878 0
      vertex -1.61803 41.1756 0
      vertex -1 40 0
    endloop
  endfacet
  facet normal -0 0 1
    outer loop
      vertex 0.809016 39.4122 0
      vertex 1.61803 38.8244 0
      vertex 1 40 0
    endloop
  endfacet
  facet normal 0 0 1
    outer loop
      vertex 0.809016 39.4122 0
      vertex 0.618033 38.0979 0
      vertex 1.61803 38.8244 0
    endloop
  endfacet
  facet normal -0 0 1
    outer loop
      vertex 0.309016 39.0489 0
      vertex 0.618033 38.0979 0
      vertex 0.809016 39.4122 0
    endloop
  endfacet
  facet normal -0 0 1
    outer loop
      vertex -0.309016 39.0489 0
      vertex 0.618033 38.0979 0
      vertex 0.309016 39.0489 0
    endloop
  endfacet
  facet normal 0 0 1
    outer loop
      vertex -0.309016 39.0489 0
      vertex -0.618033 38.0979 0
      vertex 0.618033 38.0979 0
    endloop
  endfacet
  facet normal 0 0 1
    outer loop
      vertex -0.809016 39.4122 0
      vertex -0.618033 38.0979 0
      vertex -0.309016 39.0489 0
    endloop
  endfacet
  facet normal 0 0 1
    outer loop
      vertex -1.61803 38.8244 0
      vertex -0.809016 39.4122 0
      vertex -1 40 0
    endloop
  endfacet
  facet normal 0 0 1
    outer loop
      vertex -2 40 0
      vertex -1 40 0
      vertex -1.61803 41.1756 0
    endloop
  endfacet
  facet normal 0 0 1
    outer loop
      vertex -0.809016 39.4122 0
      vertex -1.61803 38.8244 0
      vertex -0.618033 38.0979 0
    endloop
  endfacet
  facet normal 0 0 1
    outer loop
      vertex -1 40 0
      vertex -2 40 0
      vertex -1.61803 38.8244 0
    endloop
  endfacet
  facet normal 0.951056 0.309018 7.61106e-07
    outer loop
      vertex -1.61803 38.8244 2
      vertex -2 40 1.2
      vertex -1.8 39.3845 2
    endloop
  endfacet
  facet normal 0.951056 0.309017 0
    outer loop
      vertex -2 40 1.2
      vertex -1.61803 38.8244 2
      vertex -1.61803 38.8244 0
    endloop
  endfacet
  facet normal 0.951056 0.309017 0
    outer loop
      vertex -2 40 1.2
      vertex -1.61803 38.8244 0
      vertex -2 40 0
    endloop
  endfacet
  facet normal -0.587786 0.809017 0
    outer loop
      vertex 1.61803 38.8244 0
      vertex 0.618033 38.0979 2
      vertex 1.61803 38.8244 2
    endloop
  endfacet
  facet normal -0.587786 0.809017 0
    outer loop
      vertex 0.618033 38.0979 2
      vertex 1.61803 38.8244 0
      vertex 0.618033 38.0979 0
    endloop
  endfacet
  facet normal 0.587786 0.809017 -0
    outer loop
      vertex -0.618033 38.0979 0
      vertex -1.61803 38.8244 2
      vertex -0.618033 38.0979 2
    endloop
  endfacet
  facet normal 0.587786 0.809017 0
    outer loop
      vertex -1.61803 38.8244 2
      vertex -0.618033 38.0979 0
      vertex -1.61803 38.8244 0
    endloop
  endfacet
  facet normal 0 1 -0
    outer loop
      vertex 0.618033 38.0979 0
      vertex -0.618033 38.0979 2
      vertex 0.618033 38.0979 2
    endloop
  endfacet
  facet normal 0 1 0
    outer loop
      vertex -0.618033 38.0979 2
      vertex 0.618033 38.0979 0
      vertex -0.618033 38.0979 0
    endloop
  endfacet
  facet normal 0.970143 0 0.242536
    outer loop
      vertex 2 -40 1.2
      vertex 1.8 -37.5 2
      vertex 1.8 -39.3845 2
    endloop
  endfacet
  facet normal 0.970143 0 0.242536
    outer loop
      vertex 1.8 -37.5 2
      vertex 2 -40 1.2
      vertex 2.8 -37.5 -2
    endloop
  endfacet
  facet normal 0.970143 -0 0.242536
    outer loop
      vertex 1.8 -42.5 2
      vertex 2 -40 1.2
      vertex 1.8 -40.6155 2
    endloop
  endfacet
  facet normal 0.970143 0 0.242536
    outer loop
      vertex 2.8 -42.5 -2
      vertex 2 -40 1.2
      vertex 1.8 -42.5 2
    endloop
  endfacet
  facet normal 0.970143 0 0.242536
    outer loop
      vertex 2 -40 1.2
      vertex 2.8 -42.5 -2
      vertex 2.8 -37.5 -2
    endloop
  endfacet
  facet normal -0.970143 0 0.242536
    outer loop
      vertex -2 -40 1.2
      vertex -1.8 -37.5 2
      vertex -2.8 -37.5 -2
    endloop
  endfacet
  facet normal -0.970143 0 0.242536
    outer loop
      vertex -1.8 -37.5 2
      vertex -2 -40 1.2
      vertex -1.8 -39.3845 2
    endloop
  endfacet
  facet normal -0.970143 0 0.242536
    outer loop
      vertex -2.8 -42.5 -2
      vertex -2 -40 1.2
      vertex -2.8 -37.5 -2
    endloop
  endfacet
  facet normal -0.970143 0 0.242536
    outer loop
      vertex -1.8 -42.5 2
      vertex -2 -40 1.2
      vertex -2.8 -42.5 -2
    endloop
  endfacet
  facet normal -0.970143 0 0.242536
    outer loop
      vertex -2 -40 1.2
      vertex -1.8 -42.5 2
      vertex -1.8 -40.6155 2
    endloop
  endfacet
  facet normal 0 -1 0
    outer loop
      vertex -2.8 -42.5 -2
      vertex 1.8 -42.5 2
      vertex -1.8 -42.5 2
    endloop
  endfacet
  facet normal 0 -1 -0
    outer loop
      vertex 1.8 -42.5 2
      vertex -2.8 -42.5 -2
      vertex 2.8 -42.5 -2
    endloop
  endfacet
  facet normal -0 0 1
    outer loop
      vertex 1.61803 -41.1756 2
      vertex 1.8 -42.5 2
      vertex 1.8 -40.6155 2
    endloop
  endfacet
  facet normal -0 0 1
    outer loop
      vertex 0.618033 -41.9021 2
      vertex 1.8 -42.5 2
      vertex 1.61803 -41.1756 2
    endloop
  endfacet
  facet normal 0 0 1
    outer loop
      vertex -0.618033 -41.9021 2
      vertex 1.8 -42.5 2
      vertex 0.618033 -41.9021 2
    endloop
  endfacet
  facet normal 0 0 1
    outer loop
      vertex -0.618033 -41.9021 2
      vertex -1.8 -42.5 2
      vertex 1.8 -42.5 2
    endloop
  endfacet
  facet normal 0 0 1
    outer loop
      vertex -1.61803 -41.1756 2
      vertex -1.8 -42.5 2
      vertex -0.618033 -41.9021 2
    endloop
  endfacet
  facet normal 0 0 1
    outer loop
      vertex -1.8 -42.5 2
      vertex -1.61803 -41.1756 2
      vertex -1.8 -40.6155 2
    endloop
  endfacet
  facet normal 0 1 0
    outer loop
      vertex -4.59243e-15 -37.5 -2
      vertex 1.8 -37.5 2
      vertex 2.8 -37.5 -2
    endloop
  endfacet
  facet normal 0 1 0
    outer loop
      vertex 1.8 -37.5 2
      vertex -4.59243e-15 -37.5 -2
      vertex -4.59243e-15 -37.5 2
    endloop
  endfacet
  facet normal 0.951056 0.309019 0
    outer loop
      vertex -0.809016 -40.5878 0
      vertex -1 -40 -2
      vertex -1 -40 0
    endloop
  endfacet
  facet normal 0.951056 0.309019 0
    outer loop
      vertex -1 -40 -2
      vertex -0.809016 -40.5878 0
      vertex -0.809016 -40.5878 -2
    endloop
  endfacet
  facet normal -0.951056 0.309019 0
    outer loop
      vertex 0.809016 -40.5878 -2
      vertex 1 -40 0
      vertex 1 -40 -2
    endloop
  endfacet
  facet normal -0.951056 0.309019 0
    outer loop
      vertex 1 -40 0
      vertex 0.809016 -40.5878 -2
      vertex 0.809016 -40.5878 0
    endloop
  endfacet
  facet normal 0 1 -0
    outer loop
      vertex 0.309016 -40.9511 -2
      vertex -0.309016 -40.9511 0
      vertex 0.309016 -40.9511 0
    endloop
  endfacet
  facet normal 0 1 0
    outer loop
      vertex -0.309016 -40.9511 0
      vertex 0.309016 -40.9511 -2
      vertex -0.309016 -40.9511 -2
    endloop
  endfacet
  facet normal 0.587788 0.809015 -0
    outer loop
      vertex -0.309016 -40.9511 -2
      vertex -0.809016 -40.5878 0
      vertex -0.309016 -40.9511 0
    endloop
  endfacet
  facet normal 0.587788 0.809015 0
    outer loop
      vertex -0.809016 -40.5878 0
      vertex -0.309016 -40.9511 -2
      vertex -0.809016 -40.5878 -2
    endloop
  endfacet
  facet normal -0.587788 0.809015 0
    outer loop
      vertex 0.809016 -40.5878 -2
      vertex 0.309016 -40.9511 0
      vertex 0.809016 -40.5878 0
    endloop
  endfacet
  facet normal -0.587788 0.809015 0
    outer loop
      vertex 0.309016 -40.9511 0
      vertex 0.809016 -40.5878 -2
      vertex 0.309016 -40.9511 -2
    endloop
  endfacet
  facet normal 0.951056 -0.309019 0
    outer loop
      vertex -1 -40 0
      vertex -0.809016 -39.4122 -2
      vertex -0.809016 -39.4122 0
    endloop
  endfacet
  facet normal 0.951056 -0.309019 0
    outer loop
      vertex -0.809016 -39.4122 -2
      vertex -1 -40 0
      vertex -1 -40 -2
    endloop
  endfacet
  facet normal -0.951056 -0.309019 0
    outer loop
      vertex 1 -40 -2
      vertex 0.809016 -39.4122 0
      vertex 0.809016 -39.4122 -2
    endloop
  endfacet
  facet normal -0.951056 -0.309019 0
    outer loop
      vertex 0.809016 -39.4122 0
      vertex 1 -40 -2
      vertex 1 -40 0
    endloop
  endfacet
  facet normal 0 -1 0
    outer loop
      vertex -0.309016 -39.0489 -2
      vertex 0.309016 -39.0489 0
      vertex -0.309016 -39.0489 0
    endloop
  endfacet
  facet normal 0 -1 -0
    outer loop
      vertex 0.309016 -39.0489 0
      vertex -0.309016 -39.0489 -2
      vertex 0.309016 -39.0489 -2
    endloop
  endfacet
  facet normal 0.587788 -0.809015 0
    outer loop
      vertex -0.809016 -39.4122 -2
      vertex -0.309016 -39.0489 0
      vertex -0.809016 -39.4122 0
    endloop
  endfacet
  facet normal 0.587788 -0.809015 0
    outer loop
      vertex -0.309016 -39.0489 0
      vertex -0.809016 -39.4122 -2
      vertex -0.309016 -39.0489 -2
    endloop
  endfacet
  facet normal -0.587788 -0.809015 0
    outer loop
      vertex 0.309016 -39.0489 -2
      vertex 0.809016 -39.4122 0
      vertex 0.309016 -39.0489 0
    endloop
  endfacet
  facet normal -0.587788 -0.809015 -0
    outer loop
      vertex 0.809016 -39.4122 0
      vertex 0.309016 -39.0489 -2
      vertex 0.809016 -39.4122 -2
    endloop
  endfacet
  facet normal 0.951056 0.309018 7.61106e-07
    outer loop
      vertex -1.61803 -41.1756 2
      vertex -2 -40 1.2
      vertex -1.8 -40.6155 2
    endloop
  endfacet
  facet normal 0.951056 0.309017 0
    outer loop
      vertex -2 -40 1.2
      vertex -1.61803 -41.1756 2
      vertex -1.61803 -41.1756 0
    endloop
  endfacet
  facet normal 0.951056 0.309017 0
    outer loop
      vertex -2 -40 1.2
      vertex -1.61803 -41.1756 0
      vertex -2 -40 0
    endloop
  endfacet
  facet normal -0.951056 0.309017 0
    outer loop
      vertex 1.61803 -41.1756 0
      vertex 2 -40 1.2
      vertex 2 -40 0
    endloop
  endfacet
  facet normal -0.951056 0.309017 0
    outer loop
      vertex 1.61803 -41.1756 2
      vertex 2 -40 1.2
      vertex 1.61803 -41.1756 0
    endloop
  endfacet
  facet normal -0.951056 0.309018 7.61106e-07
    outer loop
      vertex 2 -40 1.2
      vertex 1.61803 -41.1756 2
      vertex 1.8 -40.6155 2
    endloop
  endfacet
  facet normal 3.08616e-06 1 -0
    outer loop
      vertex 0.618033 -41.9021 0
      vertex -0.618033 -41.9021 2
      vertex 0.618033 -41.9021 2
    endloop
  endfacet
  facet normal 3.08616e-06 1 0
    outer loop
      vertex -0.618033 -41.9021 2
      vertex 0.618033 -41.9021 0
      vertex -0.618033 -41.9021 0
    endloop
  endfacet
  facet normal 0.587784 0.809018 -0
    outer loop
      vertex -0.618033 -41.9021 0
      vertex -1.61803 -41.1756 2
      vertex -0.618033 -41.9021 2
    endloop
  endfacet
  facet normal 0.587784 0.809018 0
    outer loop
      vertex -1.61803 -41.1756 2
      vertex -0.618033 -41.9021 0
      vertex -1.61803 -41.1756 0
    endloop
  endfacet
  facet normal -0.587786 0.809017 0
    outer loop
      vertex 1.61803 -41.1756 0
      vertex 0.618033 -41.9021 2
      vertex 1.61803 -41.1756 2
    endloop
  endfacet
  facet normal -0.587786 0.809017 0
    outer loop
      vertex 0.618033 -41.9021 2
      vertex 1.61803 -41.1756 0
      vertex 0.618033 -41.9021 0
    endloop
  endfacet
  facet normal 0.951056 -0.309018 7.61106e-07
    outer loop
      vertex -2 -40 1.2
      vertex -1.61803 -38.8244 2
      vertex -1.8 -39.3845 2
    endloop
  endfacet
  facet normal 0.951056 -0.309017 0
    outer loop
      vertex -1.61803 -38.8244 2
      vertex -2 -40 1.2
      vertex -1.61803 -38.8244 0
    endloop
  endfacet
  facet normal 0.951056 -0.309017 0
    outer loop
      vertex -1.61803 -38.8244 0
      vertex -2 -40 1.2
      vertex -2 -40 0
    endloop
  endfacet
  facet normal 0 0 1
    outer loop
      vertex 1 -40 0
      vertex 2 -40 0
      vertex 1.61803 -38.8244 0
    endloop
  endfacet
  facet normal 0 0 1
    outer loop
      vertex 2 -40 0
      vertex 1 -40 0
      vertex 1.61803 -41.1756 0
    endloop
  endfacet
  facet normal 0 0 1
    outer loop
      vertex 1.61803 -38.8244 0
      vertex 0.809016 -39.4122 0
      vertex 1 -40 0
    endloop
  endfacet
  facet normal 0 0 1
    outer loop
      vertex 0.618033 -38.0979 0
      vertex 0.809016 -39.4122 0
      vertex 1.61803 -38.8244 0
    endloop
  endfacet
  facet normal 0 0 1
    outer loop
      vertex 0.618033 -38.0979 0
      vertex 0.309016 -39.0489 0
      vertex 0.809016 -39.4122 0
    endloop
  endfacet
  facet normal 0 0 1
    outer loop
      vertex 0.618033 -38.0979 0
      vertex -0.309016 -39.0489 0
      vertex 0.309016 -39.0489 0
    endloop
  endfacet
  facet normal -0 0 1
    outer loop
      vertex -0.618033 -38.0979 0
      vertex -0.309016 -39.0489 0
      vertex 0.618033 -38.0979 0
    endloop
  endfacet
  facet normal 0 0 1
    outer loop
      vertex -0.618033 -38.0979 0
      vertex -0.809016 -39.4122 0
      vertex -0.309016 -39.0489 0
    endloop
  endfacet
  facet normal -0 0 1
    outer loop
      vertex -1.61803 -38.8244 0
      vertex -0.809016 -39.4122 0
      vertex -0.618033 -38.0979 0
    endloop
  endfacet
  facet normal 0 0 1
    outer loop
      vertex -0.809016 -39.4122 0
      vertex -1.61803 -38.8244 0
      vertex -1 -40 0
    endloop
  endfacet
  facet normal -0 0 1
    outer loop
      vertex 0.809016 -40.5878 0
      vertex 1.61803 -41.1756 0
      vertex 1 -40 0
    endloop
  endfacet
  facet normal 0 0 1
    outer loop
      vertex 0.809016 -40.5878 0
      vertex 0.618033 -41.9021 0
      vertex 1.61803 -41.1756 0
    endloop
  endfacet
  facet normal -0 0 1
    outer loop
      vertex 0.309016 -40.9511 0
      vertex 0.618033 -41.9021 0
      vertex 0.809016 -40.5878 0
    endloop
  endfacet
  facet normal -0 0 1
    outer loop
      vertex -0.309016 -40.9511 0
      vertex 0.618033 -41.9021 0
      vertex 0.309016 -40.9511 0
    endloop
  endfacet
  facet normal 0 0 1
    outer loop
      vertex -0.309016 -40.9511 0
      vertex -0.618033 -41.9021 0
      vertex 0.618033 -41.9021 0
    endloop
  endfacet
  facet normal 0 0 1
    outer loop
      vertex -0.809016 -40.5878 0
      vertex -0.618033 -41.9021 0
      vertex -0.309016 -40.9511 0
    endloop
  endfacet
  facet normal 0 0 1
    outer loop
      vertex -1.61803 -41.1756 0
      vertex -0.809016 -40.5878 0
      vertex -1 -40 0
    endloop
  endfacet
  facet normal 0 0 1
    outer loop
      vertex -2 -40 0
      vertex -1 -40 0
      vertex -1.61803 -38.8244 0
    endloop
  endfacet
  facet normal 0 0 1
    outer loop
      vertex -0.809016 -40.5878 0
      vertex -1.61803 -41.1756 0
      vertex -0.618033 -41.9021 0
    endloop
  endfacet
  facet normal 0 0 1
    outer loop
      vertex -1 -40 0
      vertex -2 -40 0
      vertex -1.61803 -41.1756 0
    endloop
  endfacet
  facet normal -0.951056 -0.309017 0
    outer loop
      vertex 2 -40 1.2
      vertex 1.61803 -38.8244 2
      vertex 1.61803 -38.8244 0
    endloop
  endfacet
  facet normal -0.951056 -0.309017 -0
    outer loop
      vertex 2 -40 1.2
      vertex 1.61803 -38.8244 0
      vertex 2 -40 0
    endloop
  endfacet
  facet normal -0.951056 -0.309018 7.61106e-07
    outer loop
      vertex 1.61803 -38.8244 2
      vertex 2 -40 1.2
      vertex 1.8 -39.3845 2
    endloop
  endfacet
  facet normal 0.587786 -0.809017 0
    outer loop
      vertex -1.61803 -38.8244 0
      vertex -0.618033 -38.0979 2
      vertex -1.61803 -38.8244 2
    endloop
  endfacet
  facet normal 0.587786 -0.809017 0
    outer loop
      vertex -0.618033 -38.0979 2
      vertex -1.61803 -38.8244 0
      vertex -0.618033 -38.0979 0
    endloop
  endfacet
  facet normal -0.587786 -0.809017 0
    outer loop
      vertex 0.618033 -38.0979 0
      vertex 1.61803 -38.8244 2
      vertex 0.618033 -38.0979 2
    endloop
  endfacet
  facet normal -0.587786 -0.809017 -0
    outer loop
      vertex 1.61803 -38.8244 2
      vertex 0.618033 -38.0979 0
      vertex 1.61803 -38.8244 0
    endloop
  endfacet
  facet normal 0 -1 0
    outer loop
      vertex -0.618033 -38.0979 0
      vertex 0.618033 -38.0979 2
      vertex -0.618033 -38.0979 2
    endloop
  endfacet
  facet normal 0 -1 -0
    outer loop
      vertex 0.618033 -38.0979 2
      vertex -0.618033 -38.0979 0
      vertex 0.618033 -38.0979 0
    endloop
  endfacet
endsolid OpenSCAD_Model
